<svg id="Layer_1" data-name="Layer 1" xmlns="http://www.w3.org/2000/svg" viewBox="0 0 772.91 591.5"><defs><style>.cls-1{fill:#fff;}</style></defs><path class="cls-1" d="M12.09,222.54h.76c.45,0,.72-.14.73-.64,0-1,.06-1.91.14-2.86,0-.3.14-.82.27-.84,1.41-.19,1.14-1.3,1.17-2.15s.19-1.2,1-1.17c.14,0,.36-.31.4-.51.1-.49.09-1,.17-1.51,0-.21.22-.56.34-.56.92,0,1.2-.47,1.16-1.32,0-.18.25-.53.37-.53a1,1,0,0,0,1.21-1.08c0-.11.42-.16.63-.27s.7-.26.71-.42c.06-.76.35-1.14,1.15-1.12a.67.67,0,0,0,.46-.49c0-.77.44-.79,1-1,.76-.3,2,0,2.17-1.35,0-.14.67-.22,1-.31a4.75,4.75,0,0,0,1.27-.34c2-1.19,2-1.16,3.14-1.36.65-.1,1.61.28,1.76-.92,0-.12.68-.22,1-.23q2.87-.08,5.73-.09H57.51c2.68,0,2.68,0,2.68,2.62q0,170.13,0,340.25c0,5.07.27,10.15.41,15.22,0,.56-.12,1.2.78,1.23.1,0,.25.4.27.63.17,1.5.3,3,.48,4.52,0,.27.23.76.34.75,1.29-.07,1,.88,1,1.58s.08,1.39.1,2.09c0,.54,0,1,.74,1.09.17,0,.35.45.41.72.14.61.21,1.24.31,1.86s-.26,1.62.94,1.7a15.16,15.16,0,0,1,.58,2c.09.55.11,1,.81,1,.17,0,.34.45.43.72.15.48.24,1,.35,1.47,0,.18.05.5.13.52,1.55.34,1,1.78,1.46,2.69.11.23.4.37.61.54s.59.36.64.59c.14.69.18,1.28,1.08,1.53.33.09.51,1,.61,1.5s.12.92.82,1,.2,1,.54,1.24a7.18,7.18,0,0,0,1.32.56c.09,0,.07.36.07.55,0,.46.18.73.66.72s.89.12.83.73c-.1,1.06.84.66,1.29,1s-.15,1.4.86,1.43c.51,0,.88.11.82.73l.06.37c.4,1.25.65,1.56,2,1.87.61.15,1.09.17,1,1,0,.16.28.5.43.5.74,0,1.12.25,1.16,1.08s1.26.08,1.45.83c.14.52,0,1.23.87,1.14.58,0,.78.28.76.82s.21.7.69.67.82.12.91.71c0,.19.39.4.63.48.53.18,1.09.28,1.63.43.17,0,.47.13.48.22.11,1.28,1.26,1,2,1.3.4.16.85.06.94.69,0,.21.42.49.66.51.7.07,1.24.21,1.31,1.06,0,.13.35.29.56.35.54.15,1.1.25,1.65.38.18,0,.48.08.51.18.37,1.38,1.64,1,2.55,1.36.17.07.47.09.5.2.49,1.63,1.86.8,2.84,1,.8.18,1.89-.27,2,1.12,0,.13.51.27.79.3,1.31.18,2.63.32,3.94.48.24,0,.67.08.68.18.29,1.46,1.48.82,2.29,1s1.47-.12,2.08.13,1.92-.3,2.12,1.08c0,.12.68.19,1,.2,4.07.07,8.14.1,12.21.18,3.74.08,7.49.21,11.23.31.45,0,.87,0,1,.63,0,.17.45.37.7.39.63.06,1.27,0,1.91,0,5.15.05,10.3.08,15.45.16,1.39,0,2.78.2,4.16.32.18,0,.48.11.49.2.17,1.19,1.1.83,1.77.85,2.6.07,5.21.05,7.82.13,1.58.05,3.15.23,4.73.36.18,0,.49.07.5.16.28,1.36,1.37.85,2.14.88,2.09.11,4.19.12,6.29.14.58,0,1,.07,1,.81,0,.56.41.54.79.55l5.72.12c1,0,1.91.07,2.86,0,.61,0,1,.13.93.84,0,.55.44.52.82.53,1.52,0,3,.09,4.58.12.6,0,1.16,0,1.11.88,0,.56.45.49.82.5q2.67.11,5.34.18c.61,0,1.13,0,1.08.88,0,.55.47.49.83.5l4.39.14c.36,0,.87-.09.85.47,0,.82.4.9,1.06.91,1.78,0,3.56.12,5.34.17.48,0,.83.06.9.67s.52.66,1,.67c1,0,2,.07,3,.13.24,0,.64.07.68.2.47,1.5,1.74,1.14,2.8,1.25.38,0,.77,0,1.14.07s.65.1.68.22c.4,1.47,1.64,1,2.62,1.22.37.06.76,0,1.14.09.18,0,.46.07.51.18.69,1.76,2.32,1,3.53,1.3.62.15,1.5-.24,1.55.88a13.93,13.93,0,0,0,1.76.58c.55.11,1.14,0,1.71.1.23,0,.64.15.64.24,0,1.18,1,.76,1.56.88a17,17,0,0,0,2.24.33c.5,0,.84.11.94.7,0,.18.42.39.67.43.93.17,1.87.32,2.81.4.55.05,1,.11,1,.8,0,.15.34.34.55.38.8.16,1.62.25,2.42.4.52.1,1.22-.11,1.25.83,0,.14.64.24,1,.4.75.39,2-.11,2.23,1.24,0,.11.43.17.67.22.62.11,1.25.19,1.87.32.22,0,.61.22.61.33,0,1,.9.65,1.36.95s1.83-.23,1.9,1.12c0,.1.55.18.85.24.8.17,1.6.31,2.4.48.23,0,.64.14.65.24.06,1.06.89.76,1.51,1s1.63-.06,1.73,1.09c0,.13.36.3.57.35.54.15,1.1.25,1.65.36.18,0,.52,0,.53.1.31,1.59,1.76,1,2.69,1.41.33.14.56.23.58.6s.35.6.77.61.87,0,.86.51c0,.81.4.93,1.06.9a4.85,4.85,0,0,1,1.32.13c.24.06.62.34.61.51,0,.83.42.94,1.07.92a5.4,5.4,0,0,1,1.33.11c.24.06.62.34.61.51,0,.8.39,1,1.06.93a5.4,5.4,0,0,1,1.33.11c.24.06.62.32.62.49,0,.78.36,1,1.05.95a11,11,0,0,1,1.14.11.5.5,0,0,1,.54.6c-.05.72.39.81,1,.86.31,0,.87.27.87.43,0,.84.44,1,1.18,1.06s1.74-.15,1.72,1.16c0,.11.64.21,1,.35s.74.29.73.41c-.07,1.23.86,1.06,1.56,1.13s1.29,0,1.23,1a.7.7,0,0,0,.47.46c.74,0,1.16.26,1.24,1.06,0,.17.46.37.74.43.49.11,1,.1,1.51.2.19,0,.51.26.51.39,0,.83.41,1.1,1.18,1.1.15,0,.42.3.44.48.06.6.43.69.92.71a.83.83,0,0,1,.51.2c1.25,1.32,1.25,1.32,2.43,1.66l.19,0a6,6,0,0,0,.8,1.31c.33.34,1.22-.17,1.26.77s1.14.31,1.44.85,0,1.22,1,1.29c.76,0,1.77.22,1.93,1.37,0,.17.36.38.58.43.95.21,1.08,1.71,2.32,1.46a1.33,1.33,0,0,1,.27.65c.07.92.95.43,1.28.76s.42,1.21.75,1.3c.71.17,1.16.32,1.15,1.15,0,.14.3.31.49.43s.81.34.86.58c.13.66.36,1,1.09,1s.62.53.56,1-.49.52-.86.52c-.76,0-1.53-.05-2.29-.08s-1.39.11-1.54-.92c0-.2-.72-.41-1.11-.44-1.34-.1-2.67-.12-4-.15-.47,0-.86,0-.95-.67,0-.18-.43-.4-.69-.43-1.44-.16-2.89-.28-4.33-.4-.64,0-1.28,0-1.91-.09-.19,0-.53-.25-.52-.37,0-1.14-.77-.95-1.44-1l-5.15-.13c-.56,0-1.2.11-1.23-.79,0-.11-.39-.27-.62-.29-1.31-.14-2.63-.27-4-.36-1-.06-1.91,0-2.86-.09-.69,0-1.62.32-1.73-.88a11.91,11.91,0,0,0-2.17-.49c-2.29-.11-4.58-.12-6.87-.18-.55,0-1.19.15-1.26-.76,0-.12-.64-.26-1-.28-3-.16-6-.27-8.94-.44-.73,0-1.69.36-2-.87,0-.17-.8-.21-1.23-.23-4.13-.15-8.25-.28-12.38-.45-.62,0-1.48.32-1.59-.81,0-.1-.43-.22-.66-.23-.7,0-1.4,0-2.1,0-8.45-.15-16.9-.27-25.36-.46-.87,0-2.05.59-2.54-.87-.06-.17-.82-.15-1.25-.16-6.24,0-12.47-.12-18.7-.12-6.62,0-13.23.06-19.85.13-.77,0-1.82-.47-2.16.86,0,.14-.69.16-1.06.16-3.37,0-6.74,0-10.11.09-5.34.1-10.68.25-16,.4-.52,0-1.2-.23-1.31.68,0,.14-.36.31-.56.35a7.33,7.33,0,0,1-1.15.05q-7.51.21-15,.44c-.61,0-1.48-.34-1.6.81,0,.11-.55.22-.84.24-1.27,0-2.54,0-3.81.09q-4,.16-8,.38c-.31,0-.84.1-.86.22-.21,1.17-1.13.81-1.8.83-2.35.09-4.7.09-7,.16-.82,0-1.63.18-2.44.29-.18,0-.49.08-.5.17-.26,1.34-1.34.89-2.11.92-2.28.1-4.58.07-6.86.15a22.29,22.29,0,0,0-2.44.31c-.18,0-.47.12-.49.22-.15,1.19-1.09.81-1.76.84-1.78.09-3.56,0-5.33.17-.83.07-2-.3-2.29,1.1,0,.14-.55.23-.85.24-1.65.06-3.3.07-4.95.15-.82,0-1.63.19-2.44.31-.23,0-.65.11-.66.22-.19,1.32-1.24.84-1.94.89-1.58.11-3.18,0-4.76.15-.85.07-2-.24-2.33,1.07,0,.18-.66.27-1,.29-1.84.07-3.68.11-5.53.15-.66,0-1.29,0-1.4.89-.07.56-.54.43-.89.44l-5.15.15c-.65,0-1.28,0-1.25.94,0,.55-.51.43-.86.45-2,.06-3.94.1-5.91.19-.26,0-.73.24-.73.36.07,1.11-.69,1-1.39,1-1.84,0-3.68.11-5.52.16-.42,0-.79.06-.74.6s-.26.77-.8.77c-2.41,0-4.83.11-7.24.13-.71,0-1.25,0-1.23,1,0,.12-.47.36-.71.36s-.69-.26-.69-.39c0-1-.62-.91-1.26-.93-2.17,0-4.33-.12-6.49-.16-.62,0-1.14,0-1.08-.9,0-.16-.39-.44-.63-.49a4.94,4.94,0,0,0-1.33-.08c-.72,0-1.23-.11-1.18-1,0-.14-.3-.37-.49-.42a6.1,6.1,0,0,0-1.13-.11c-.68-.05-1.38.09-1.38-1,0-.79-1-.21-1.39-.63s.18-1.29-.77-1.27c-.62,0-.93-.19-.92-.87,0-.95-.91-.43-1.23-.76s-.46-1.33-.69-1.33c-1,0-1.16-.53-1.17-1.33l-.38-.31c-.86.05-1-.41-1.06-1.16s.2-1.77-1.16-1.67c-.11,0-.32-.38-.35-.59-.07-.57-.05-1.15-.12-1.71,0-.21-.19-.57-.32-.58-1.14-.1-1-.94-1.05-1.69,0-.57-.05-1.15-.09-1.72-.09-1.16-.1-1.16-1.49-1.24Z" transform="translate(-12.09 -105)"/><path class="cls-1" d="M419.74,448.11V235c0-1.46,0-2.92.05-4.39,0-.39,0-.81.58-.77.79.07.76-.45.77-1,.06-1.84.11-3.68.21-5.52,0-.23.3-.64.45-.64,1,.05,1-.56,1-1.24a4.84,4.84,0,0,1,.09-1.32c.06-.23.36-.56.55-.56.68,0,.89-.3.86-.93a3.61,3.61,0,0,1,.14-1.13c.08-.24.33-.61.5-.61.8,0,1-.43,1-1.09a1.34,1.34,0,0,1,.06-.57c.26-.55,1.23.06,1.33-.77.07-.57.08-1,.85-1.24.41-.14.64-1.13.75-1.78s.09-1.16.94-1.06l.34-.11c.06-1.31,1.74-1.65,1.77-3,0-.19.06-.38.06-.57,0-1,1.35-.35,1.42-1.23.05-.63,0-1.33,1-1.28.17,0,.45-.38.51-.63a12.2,12.2,0,0,0,.2-1.51l.13-.32c1.28.13,1-1.5,1.85-1.71a1.07,1.07,0,0,0,.94-1,.92.92,0,0,1,.58-.56.71.71,0,0,0,.68-.75,1.74,1.74,0,0,1,.11-.55c.27-.57,1.4.06,1.37-1,0-.8.55-.94,1.13-1.26s.59-1,.75-1.62.05-.89.71-.9c.17,0,.48-.29.48-.44,0-.77.28-1.09,1.09-1.15s.2-1,.66-1.38,1.17.18,1.25-.56.23-1.13,1.08-1.17.17-1,.68-1.35,1.16-.33,1.2-.58c.11-.78.42-1,1.17-1.17.32-.07.43-.91.75-1.31s1.12.19,1.17-.62c0-.66.19-1.08,1-1,.18,0,.54-.36.53-.56,0-.79.43-.91,1.08-1,.88-.06.23-1,.7-1.36s1.23.18,1.25-.52c0-1,.46-1.21,1.29-1.2.11,0,.22-.39.31-.6s.22-.66.25-.66c1.45.37.89-1.67,2-1.69.25,0,.68-.28.68-.44,0-.83.49-1,1.17-1.17.36-.11.44-1,.8-1.3s1.11.12,1.17-.64c.05-.6.38-.71.87-.76.18,0,.47-.14.48-.25.16-1.34,1.39-1.16,2.18-1.6.24-.13.6-.3.64-.51.11-.59.48-.67,1-.71.18,0,.5-.11.5-.16,0-1.18.87-1.31,1.7-1.55.12,0,.24-.32.25-.48,0-.57.29-.77.82-.81.22,0,.61-.22.61-.35,0-1.18,1-1,1.7-1.34.44-.22,1.21-.1,1.17-1,0-.13.47-.28.72-.42s.71-.27.71-.41c0-.83.44-1.07,1.19-1.08.16,0,.46-.3.45-.45,0-.92.49-1,1.2-1a6.29,6.29,0,0,0,1.14-.11c.18,0,.5-.1.5-.16a1.3,1.3,0,0,1,1.52-1.4l.21-.28c-.12-1.52,1.12-1.06,1.84-1.17s1.22-.12,1.18-1c0-.15.42-.45.65-.46.6,0,1-.14.92-.86-.05-.51.27-.63.71-.64s.89-.13,1.33-.12c.6,0,.92-.09.94-.82,0-.88.88-.45,1.33-.68s-.08-1.22.73-1.36a5.85,5.85,0,0,1,1.32-.13c.71,0,1.24-.07,1.24-1,0-.15.42-.39.68-.45.43-.11.88-.08,1.32-.17.22,0,.58-.18.59-.3.11-.91.65-1.14,1.45-1.14.19,0,.53-.26.53-.4,0-.88.77-.69,1.2-.94.66-.4,1.94.24,2-1.18l1.8-.52c.24-.06.66-.16.66-.24,0-1.21,1.07-.82,1.66-1.14s1.67,0,1.63-1.16c.66-.18,1.31-.41,2-.53.46-.09.86-.06.93-.69,0-.19.4-.42.66-.5.54-.16,1.1-.23,1.66-.35.18,0,.49-.06.51-.14.33-1.45,1.65-1,2.54-1.36.17-.07.5-.09.51-.15.09-1.46,1.41-.95,2.15-1.31.48-.22,1.19,0,1.18-.87,0-.11.37-.29.59-.32.56-.07,1.14,0,1.7-.13.25,0,.66-.31.66-.46,0-.94.56-1,1.25-1A6.49,6.49,0,0,0,528,132c.2,0,.52-.28.51-.42,0-.93.58-.92,1.24-1,.88-.07,1.75-.24,2.62-.37.18,0,.49-.09.5-.17.27-1.38,1.4-1,2.24-1.06.62-.06,1.12-.08,1.14-.91,0-.17.39-.44.63-.47.94-.11,1.9-.1,2.85-.22.32,0,.86-.33.87-.52.05-.87.61-.82,1.19-.84s1.4-.12,2.1-.12,1.1-.1,1.07-.92c0-.16.4-.45.64-.47.94-.09,1.9-.12,2.85-.13.62,0,1.14,0,1.1-.9,0-.16.38-.47.62-.49.94-.09,1.9-.12,2.85-.14.61,0,1.16,0,1.1-.88,0-.16.38-.48.6-.5,1.08-.09,2.16-.11,3.24-.14.44,0,.75-.14.71-.64s.25-.77.8-.77c1,0,2-.08,3-.1.55,0,.84-.2.79-.78s.34-.59.74-.61c1.34,0,2.67-.08,4-.15.58,0,1.36.25,1.38-.79a9.35,9.35,0,0,1,1.74-.58c.81-.12,1.65,0,2.47-.11.62-.06,1.49.26,1.58-.86,0-.12.41-.26.64-.29q2.27-.22,4.53-.39c.56,0,1,0,1.32-.73.23-.45,1.3-.59,2-.66,1.39-.13,2.79-.1,4.19-.17a1.45,1.45,0,0,0,.86-.25,3.31,3.31,0,0,1,2.63-1.14l4-.13c.5,0,1,.1,1.14-.67,0-.16.45-.35.71-.4a25.88,25.88,0,0,1,2.63-.33c1.52-.07,3-.08,4.57-.12.56,0,1.15.12,1.29-.75,0-.17.75-.29,1.16-.31,3.24-.17,6.47-.3,9.71-.45.54,0,1.18.16,1.29-.71,0-.14.37-.29.58-.33a5,5,0,0,1,1-.05q5.91-.21,11.81-.44c.62,0,1.48.3,1.58-.83,0-.09.43-.19.67-.22a10.75,10.75,0,0,1,1.14,0l26.12-.44c.44,0,.89,0,1.33,0,.24,0,.67-.11.68-.21.17-1.23,1.12-.77,1.78-.81,1-.06,1.91,0,2.86,0,.54,0,1.18-.15,1.29.74,0,.15.63.29,1,.32,1.83.16,3.67.29,5.5.44.48,0,1-.08,1.13.69,0,.18.43.37.7.44.54.15,1.11.22,1.66.34.18,0,.49.12.49.19,0,1.31,1.15.91,1.8,1.22s1.49-.06,1.47,1.06c0,.09.43.29.64.26,1.18-.12.58,1.12,1.12,1.41s1.36-.08,1.31,1,1.09.36,1.41.9-.19,1.26.75,1.29h.19c1.08,0,.2,1.44,1,1.49s1.21.43,1.13,1.29a3.94,3.94,0,0,0,.1,1.13c0,.2.26.55.36.54,1.29-.15,1,.79,1.09,1.51a10.8,10.8,0,0,0,.11,1.13c0,.15.19.42.27.41,1.42-.13,1,.93,1.12,1.67a18.17,18.17,0,0,1,.09,2.09c0,.61.12,1,.83,1,.18,0,.47.36.52.59a6.55,6.55,0,0,1,.05,1.33c0,2,0,3.95,0,5.92V545.22c0,2.42,0,4.84,0,7.25,0,.55,0,1-.79,1-.57,0-.56.39-.58.77-.07,1.4-.12,2.79-.21,4.19,0,.21-.19.61-.27.6-1-.07-1.24.4-1.19,1.26,0,.16-.3.47-.45.46-1-.06-1,.52-1,1.21a7.17,7.17,0,0,1-.09,1.13l-.07.38c-.27.59-1.42-.14-1.39.88,0,.75-.32,1-1,1l-.31.16c.31,1.27-1.44,1.18-1.5,2.25a.9.9,0,0,1-.66.56c-.82,0-1.11.37-1.13,1.12l-.36.35c-.93-.08-1.2.42-1.26,1.24,0,.12-.52.23-.8.29-.56.12-1.11.19-1.67.29-.24,1.43-1.57.92-2.38,1.33-.16.09-.41,0-.55.11-2.24,1.62-2.56,1.23-4.1,1.4-.25,0-.51,0-.76,0-.62.09-1.46-.25-1.6.85,0,.12-.67.23-1,.23-2.55.05-5.09.07-7.64.11-7.37.11-14.74.2-22.11.35-.87,0-2.09-.56-2.51.91,0,.09-.33.13-.51.15s-.51,0-.76,0c-4.51.14-9,.26-13.53.44-.7,0-1.74-.43-1.93.88,0,.08-.33.16-.5.18-.32,0-.64,0-1,0-3.42.13-6.85.25-10.28.42-.61,0-1.48-.28-1.59.84,0,.11-.56.22-.86.22-1.71.07-3.43.07-5.14.15-.82,0-1.63.19-2.44.3-.18,0-.48.12-.49.21-.18,1.32-1.22.83-1.93.89-1.46.1-2.92.06-4.38.13-.82,0-1.63.18-2.44.3-.17,0-.46.15-.46.25-.07,1.15-1,.8-1.57.83-1.58.08-3.17.07-4.76.14-.75,0-1.5.17-2.25.28-.18,0-.48.1-.49.2-.25,1.35-1.34.85-2.11.94-1.5.19-3,.28-4.52.42-.24,0-.65.13-.67.24-.15,1.2-1.08.81-1.75.87-.82.08-1.67,0-2.48.11s-1.86-.2-2.11,1.09c0,.14-.53.26-.81.27-1.4.08-2.8.14-4.2.17-.54,0-1,0-1,.78,0,.55-.37.56-.77.58-1.46,0-2.92.13-4.38.15-.6,0-1,.11-.93.83.05.55-.39.55-.78.56-1.33.05-2.67.12-4,.15-.56,0-1,.06-.95.81,0,.54-.4.57-.79.58l-3,.13c-.41,0-.79.07-.74.6.07.77-.43.79-1,.8-1,0-1.9.1-2.86.11-.56,0-.81.22-.77.79s-.35.6-.75.61l-2.86.13c-.25,0-.66,0-.72.11-.69,1.54-2.12,1.18-3.34,1.34-.71.09-1.62-.18-1.64,1,0,.13-.5.34-.78.37-.95.09-1.91.1-2.85.2-.24,0-.66.29-.66.44,0,1-.61,1-1.27.94a9.8,9.8,0,0,0-1.33.09c-.18,0-.46.09-.5.2-.58,1.58-2,1.07-3.13,1.3-.68.13-1.66-.22-1.55,1.08,0,.1-.36.31-.57.34-.57.07-1.15,0-1.72.1-.24,0-.64.1-.67.23-.43,1.56-1.8,1-2.78,1.27-.59.18-1.43-.2-1.61.91,0,.24-1,.29-1.51.51s-1.54-.17-1.54,1c0,.1-.39.25-.62.3-.62.13-1.25.21-1.86.33-.24,0-.66.16-.66.26-.06,1.16-1.07.86-1.69,1.09s-1.57,0-1.69,1.13c0,.09-.44.15-.68.19l-2.61.46c-.18,0-.49.06-.51.14-.32,1.45-1.63,1.08-2.54,1.37-.43.14-.63.26-.71.7a.71.71,0,0,1-.49.43c-.73,0-1.23.17-1.21,1,0,.13-.32.34-.52.38a8.4,8.4,0,0,1-1.51.14c-.6,0-1,.14-1,.83a.84.84,0,0,1-.54.56,5.82,5.82,0,0,1-1.51.14c-.6,0-1,.14-1,.83a.83.83,0,0,1-.54.57A5.94,5.94,0,0,1,484,618c-.62,0-.93.19-1,.86,0,.2-.34.49-.57.54-.49.12-1,.07-1.51.17-.28,0-.75.25-.76.41-.07.94-.7.92-1.4,1.12-.53.16-1.5,0-1.54,1.09,0,.12-.51.32-.79.32-.69,0-1.08.2-1.06,1,0,.16-.39.41-.63.47a6.52,6.52,0,0,1-1.33.13c-.44,0-.75.15-.71.65.05.73-.4.81-1,.82a12.12,12.12,0,0,0-1.33.11,1.33,1.33,0,0,0-.51.14c0,1.18-.86,1.32-1.7,1.51l-.05.17c.13,1.57-1.14,1-1.85,1.14s-1.3,0-1.2,1L465,630c-1.46.1-2.13,1.84-3.66,1.77-.58,0-.77.26-.76.8s-.3.65-.74.66-.83,0-.8.55c0,.79-.36,1-1,.94a2.7,2.7,0,0,0-1.47.21c-.38.27-.46.94-.8,1.3s-1.13-.22-1.21.56-.21,1.1-1,1c-.16,0-.48.12-.49.19-.05,1.33-1.28,1-2,1.28s-1.14.29-1.18,1.11c0,.16-.45.37-.72.42s-.76.14-.77.64-.3.61-.73.69c-.27,0-.71.28-.73.47-.08.8-.53,1-1.24,1.06l-.37.36c.05,1-.69.93-1.32,1.19s-1.49.09-1.45,1.17c0,.18-.43.5-.69.54a.88.88,0,0,0-.87.8c0,.19-.43.34-.69.46s-.47,0-.54.1c-.32.43-.47,1.1-.87,1.31s-1.16.18-1.2,1c-.05,1-1.09.37-1.44.89s.07,1.38-1,1.26c-.34,0-.7.32-1.06.37s-.59.29-.7.72a1.25,1.25,0,0,1-.71.76c-.52.11-.75.28-.85.81a.83.83,0,0,1-.67.46c-1.22-.12-.51,1.15-1.08,1.44s-1.41-.14-1.27.95l0,.18c-.18.81-1.05.25-1.39.7s.17,1.27-.73,1.3c-.63,0-1,.18-.9.87.05.48-.24.67-.69.67l-.37,0c-.3.47-.47,1.09-.88,1.41s-1.2-.11-1.14.86c0,.22-.31.65-.47.65-.79,0-1.12.33-1.15,1.11,0,.14-.48.38-.72.36a.94.94,0,0,1-.62-.48c-.11-.19,0-.49,0-.75,0-.82,0-1.65,0-2.48Z" transform="translate(-12.09 -105)"/><path class="cls-1" d="M377.34,448.29V662.78c0,1,0,1.91,0,2.86,0,.24-.3.45-.46.67-.22-.17-.62-.32-.63-.51-.05-.6-.21-1-.89-.93s-.9-.32-1-.91c0-.2-.26-.51-.4-.51-.76,0-1.12-.28-1.16-1.11s-1-.22-1.37-.71.19-1.17-.56-1.23-1.05-.34-1.19-1.12c-.05-.31-.92-.41-1.31-.74s.18-1.24-.78-1.23c-.67,0-.86-.36-.88-1a.66.66,0,0,0-.41-.5,1.21,1.21,0,0,1-1.21-.93c-.22-.57-1.27-.46-1.53-1.42-.18-.66-1.17-.76-1.89-.89a2.45,2.45,0,0,1-.49-.17c.38-1.5-1.68-1-1.68-2,0-1.18-1.17-.52-1.47-1.08s.1-1.39-1-1.25c-.47.06-.64-.23-.71-.68,0-.18-.28-.48-.43-.48-.79,0-1.16-.32-1.17-1.12,0-.14-.32-.33-.52-.39-.59-.18-1.2-.3-1.8-.46-.16,0-.45-.18-.45-.25.07-1-.59-1.25-1.4-1.36-.09,0-.19-.32-.19-.49,0-.68-.38-.83-1-.88a.87.87,0,0,1-.57-.58.76.76,0,0,0-.74-.69c-.28,0-.74-.28-.75-.44-.05-1-.81-.87-1.42-1.13s-1.75,0-1.81-1.23c0-.09-.57-.12-.85-.24s-.52-.27-.52-.41c0-.81-.46-.94-1.15-1.12s-1.58-.11-1.66-1.2c0-.13-.53-.28-.82-.31-.47,0-.7-.24-.7-.7s-.14-.8-.62-.76c-.87.06-1.32-.25-1.31-1.16,0-.1-.25-.25-.41-.3-.89-.27-2-.07-2.34-1.4,0-.13-.58-.12-.86-.23s-.53-.27-.52-.39c.07-1-.56-1.1-1.33-1.07a11,11,0,0,1-1.14-.1c-.39,0-.59-.21-.56-.59.07-.7-.3-.9-.92-.86s-1.08-.19-1.06-1c0-.15-.27-.41-.46-.45-.49-.1-1-.06-1.5-.17-.25-.06-.63-.33-.63-.49.05-.95-.53-1-1.22-1a8.43,8.43,0,0,1-1.32-.13c-.16,0-.43-.19-.43-.26.13-1.12-.59-1.21-1.4-1.23l-.15-.1c-.15-1.33-1.36-1.08-2.13-1.31s-1-.25-1-1c0-.17-.4-.42-.66-.47-.55-.1-1.14-.05-1.7-.17-.22,0-.56-.36-.56-.55,0-.88-.58-.82-1.17-.86-.78-.06-1.63,0-1.85-1.11-.05-.22-.86-.33-1.33-.42-.7-.13-1.59,0-1.54-1.14,0-.12-.36-.32-.58-.36-.56-.09-1.13-.08-1.7-.16-.22,0-.59-.2-.59-.3,0-1-.53-1.18-1.35-1.12-.17,0-.49-.08-.51-.17-.33-1.33-1.55-1-2.41-1.3-.17-.06-.48,0-.52-.15-.63-1.6-2.13-1.19-3.33-1.46-.53-.13-1.21.07-1.19-.85,0-.12-.37-.29-.59-.35-.55-.14-1.11-.22-1.67-.33-.18,0-.5,0-.52-.12-.38-1.52-1.76-1-2.73-1.38l-.34-.1c-.34-1.55-1.74-1-2.69-1.4-.21-.08-.57-.24-.57-.36,0-.94-.68-.71-1.21-.79-.74-.11-1.48-.27-2.21-.41-.19,0-.51-.05-.53-.13-.41-1.52-1.69-.89-2.63-1.12-.34-.09-.92-.26-.93-.44-.11-1-.79-.94-1.49-1a20.18,20.18,0,0,1-2-.34c-.24-.05-.65-.13-.66-.24-.22-1.39-1.34-.85-2.1-1s-1.43,0-1.56-1c0-.17-.43-.39-.69-.42a21.46,21.46,0,0,0-2.28-.16c-.67,0-1.26,0-1.26-1,0-.15-.43-.39-.69-.43-1-.16-2-.24-3-.38-.24,0-.65-.13-.66-.24-.14-1.17-1-.86-1.73-.92s-1.52-.08-2.29-.09c-.45,0-.73-.17-.7-.66s-.27-.74-.8-.75c-1,0-2-.08-3-.11-.42,0-.77-.1-.74-.62s-.19-.79-.77-.79c-1,0-2-.09-3-.11-.54,0-.83-.2-.79-.78s-.32-.59-.73-.61c-1.47,0-2.93-.12-4.39-.15-.57,0-1-.07-1-.82.05-.55-.38-.56-.77-.57l-3.81-.15c-.54,0-1.15.14-1.21-.79,0-.49-.59-.56-1.07-.58-1.27,0-2.54-.09-3.81-.15-.55,0-1.2.13-1.23-.79,0-.12-.51-.3-.79-.32-1.51-.15-3-.27-4.53-.38-.51,0-.86,0-1.16-.68s-1.22-.71-2-.74c-1.4-.05-2.8-.11-4.19-.14-.55,0-1,0-1.06-.75,0-.14-.36-.33-.57-.36a17.29,17.29,0,0,0-2.25-.28c-1.65-.08-3.31-.1-5-.15-.6,0-1.35.2-1.37-.81a11.77,11.77,0,0,0-2.14-.54c-1.84-.11-3.69-.11-5.53-.16-.48,0-1,.12-1.14-.66,0-.17-.45-.39-.71-.42-1.51-.15-3-.26-4.53-.36-.89-.05-1.78,0-2.67-.08-.54,0-1.18.16-1.29-.74,0-.14-.62-.29-1-.31-3.61-.16-7.23-.28-10.84-.46-.71,0-1.73.42-2-.86,0-.11-.44-.18-.68-.2s-.76,0-1.14,0l-13.52-.43c-.62,0-1.3.16-1.44-.81,0-.15-.79-.25-1.21-.26-3.3,0-6.61,0-9.92-.1L128,575.55c-.59,0-1.32.22-1.46-.77,0-.13-.51-.25-.8-.29-1.19-.14-2.39-.25-3.58-.39-.58-.06-1.35.16-1.38-.87,0-.12-.68-.15-1-.33-.7-.44-2,.1-2.13-1.31-.56-.09-1.1-.22-1.66-.26s-1.14-.1-1.18-.91c-.05-1-1.13-.3-1.46-.84s.16-1.27-.8-1.23c-.51,0-.89-.16-.87-.74s-.26-.77-.81-.76-.71-.42-.71-.91l0-.37c-.45-.26-1.08-.38-1.34-.76s0-1.19-.92-1.15c-.12,0-.31-.35-.38-.56-.15-.54-.25-1.1-.37-1.65,0-.17-.1-.5-.14-.5-1.21,0-1.21-1-1.5-1.76-1.34,0-.88-1.14-1-1.82-.21-1-.27-2.13-.41-3.2,0-.23-.14-.64-.25-.65-1.11-.12-.81-1-.83-1.59,0-2.23-.1-4.46-.1-6.68V135.36c0-2.23.06-4.45.1-6.68,0-.55-.15-1.18.74-1.27.15,0,.31-.48.35-.76.15-.93.29-1.87.36-2.81,0-.58.13-1,.82-1,.12,0,.27-.36.33-.57.15-.54.24-1.1.37-1.65,0-.23.17-.65.25-.65,1.26.07.81-1.06,1.12-1.63s0-1.61,1.2-1.59c.07,0,.18-.44.2-.68,0-.43.19-.78.67-.72,1.23.15.55-1.09,1.07-1.44s1.37.15,1.29-1,1.06-.39,1.42-.87-.15-1.28.78-1.26c.62,0,.76-.3,1-.82s1-.54,1.62-.68,1.34.08,1.31-.94c0-.1.38-.26.6-.32.55-.13,1.11-.21,1.66-.34.23-.05.65-.15.65-.24.07-1.25,1.07-.87,1.71-.94,1.7-.19,3.41-.28,5.11-.39.48,0,.86,0,1-.66,0-.17.47-.38.72-.38,1.52,0,3.05,0,4.58,0,.22,0,.63.14.64.25.09,1,.86.76,1.44.77,4.26,0,8.52,0,12.78.11,4.89.09,9.78.24,14.67.38.59,0,1.31-.23,1.45.78,0,.15.77.27,1.18.28,3.94.16,7.87.27,11.81.45.71,0,1.73-.4,1.94.89,0,.1.45.17.69.18,1,0,2,0,3.05.08l7,.38c.44,0,.85,0,1,.63,0,.2.58.4.89.41,1.65.08,3.31.07,5,.14.81,0,1.63.2,2.43.32.24,0,.66.12.67.22.17,1.19,1.08.83,1.76.87,1.27.08,2.56,0,3.81.15.84.1,2-.28,2.3,1.1,0,.14.54.25.83.26,1.2.06,2.41.05,3.62.13.81.06,1.62.21,2.43.33.17,0,.48.11.49.19.18,1.27,1.2.84,1.92.94,1.12.15,2.25.26,3.38.32.58,0,1,.13,1.05.81,0,.14.48.3.76.33,1.44.17,2.89.29,4.33.44.24,0,.66,0,.69.16.39,1.49,1.61.82,2.49,1a15.75,15.75,0,0,0,2.28.09c.66,0,1.28,0,1.24,1,0,.14.44.41.68.43,1.08.08,2.16.1,3.24.12.55,0,1,0,1,.8-.05.52.33.59.74.61.83,0,1.65.1,2.48.1.64,0,1.12.07,1.09.91,0,.16.39.46.62.48,1.14.09,2.29.08,3.43.16.26,0,.74.26.73.38,0,1.24.88,1,1.57,1s1.4,0,2.09.1c.24,0,.65.32.64.47,0,.83.41.91,1.07.91.82,0,1.64.13,2.47.13.65,0,1.11.09,1.08.91,0,.15.42.42.67.45.69.09,1.39.06,2.09.13s1.41,0,1.52,1c0,.18.46.4.74.45.56.1,1.14.07,1.71.12.24,0,.64.06.68.19.51,1.55,1.86,1.14,3,1.32.25,0,.51,0,.76.07s.49.09.5.17c.2,1.68,1.56,1.1,2.5,1.29.41.08.73.12.76.63s.51.8,1.08.81a11,11,0,0,1,1.52.1c.23,0,.65.18.65.26,0,1,.82.78,1.32,1s1.68-.14,1.64,1.1a18.15,18.15,0,0,0,1.78.52c.64.13,1.39-.13,1.6.93.06.27,1,.38,1.5.53s1.21,0,1.2.91c0,.12.34.3.55.35.54.15,1.1.23,1.65.36.23.05.65.15.65.23,0,1.3,1.19.88,1.81,1.2s1.46,0,1.41,1.07a13.82,13.82,0,0,0,1.94.57c.55.09,1,.13,1,.82,0,.16.46.29.73.39.76.27,1.84,0,2,1.24,0,.15.54.31.83.3.71,0,1.05.24,1.07,1,0,.15.29.39.47.42a16.23,16.23,0,0,0,1.71.17c.41,0,.8.12.76.62-.05.74.37.83.95.83a5.52,5.52,0,0,1,1.14.12c.18,0,.49.12.5.18,0,1.1.68,1.33,1.59,1.34l.36.36c-.06,1.24.91,1,1.58,1.07s1.27,0,1.21,1c0,.53.47.45.83.54s.91.28.91.42c0,1.37,1.05,1,1.74,1.11s1.1.14,1,.95c0,.54.42.56.8.55.65,0,1.13.11,1.1.94,0,.17.37.44.61.51a6.36,6.36,0,0,0,1.32.15c.43,0,.75.12.72.63s.16.85.74.84c.19,0,.49,0,.54.08.23.41.29,1,.6,1.28s1.13.21,1.16.37c.18,1.37,1.42,1,2.16,1.3.53.21.88.24.88.91,0,1,1.09.34,1.44.85s-.18,1.27.77,1.26c.64,0,.94.26.89.91l.08.36c1.16-.16,1.36,1.2,2.27,1.44s1.05.37,2.07,1.49a1.33,1.33,0,0,0,.82.38.77.77,0,0,1,.85.79.68.68,0,0,0,.47.46,1.05,1.05,0,0,1,1.1,1.06c0,.18.43.32.65.49s.67.34.69.55a1,1,0,0,0,1.07,1.05.74.74,0,0,1,.49.51c.09.56.22.93.91,1,.25,0,.59.47.66.78.1.48.35.56.75.68s.74.42.76.67c0,.72.43.81,1,.84a.73.73,0,0,1,.52.44c.1.59.11,1.16.95,1.12l.32.4c0,.79.39,1,1.12,1.16.32.07.4,1,.75,1.32s1.13-.14,1.2.61.22,1,1,1.05a1.08,1.08,0,0,1,.77.68c.11.52.29.75.82.83a.8.8,0,0,1,.48.64c-.15,1.23,1.07.6,1.42,1.09s-.21,1.42.9,1.33c.48,0,.71.22.67.69-.06.66.24.89.89.88,1.06,0,.32,1.08.82,1.43s1.43-.22,1.3.92a8.94,8.94,0,0,0,.14,1.13c0,.48.22.69.7.67s.8.2.77.63c-.07.88.24,1.21,1.14,1.31.27,0,.34,1,.68,1.36s1.11-.13,1.14.66.24,1.07,1,1c.15,0,.45.18.45.26-.08.93.52,1.22,1.22,1.6.31.17.39.9.45,1.4s.09,1,.82,1c.22,0,.62.4.61.6,0,.88.32,1.28,1.2,1.31.12,0,.27.38.31.6.09.43.1.88.17,1.32a1.56,1.56,0,0,0,.15.5c1.53-.28,1,1.93,2.29,1.89a18.09,18.09,0,0,1,.57,2c.08.49.13.8.72.9a1.11,1.11,0,0,1,.69.75c.1.5.22.84.79.84l.19,0c.6.46,0,1.66,1.07,1.81s.58,1.25,1,1.78c.15.16.06.66.16.69,1.49.41,1.08,1.73,1.37,2.72.06.17.14.47.22.48,1.35.06.92,1.18,1,1.85.21,1.31.22,2.64.36,4,.07.61-.3,1.49.83,1.62.11,0,.23.55.24.85,0,1.46.05,2.92.05,4.38Q377.35,341.72,377.34,448.29Z" transform="translate(-12.09 -105)"/><path class="cls-1" d="M785,448.3V665.64c0,2.42-.06,4.84-.09,7.25,0,.56.06,1.05-.76,1.29-.35.1-.52,1.06-.63,1.65a11,11,0,0,0-.09,1.91,1,1,0,0,1-.66,1c-.39.19-.61.86-.75,1.36-.2.67.13,1.61-1,1.67a12.42,12.42,0,0,0-.59,1.75c-.09.48-.1.88-.72.9-.15,0-.4.19-.41.3,0,.78-.23,1.38-1.21,1.31l-.33.38c0,.78-.38,1-1.13,1.19-.33.07-.43.93-.78,1.29s-1.24-.08-1.2.85c0,.61-.36.75-.86.73-.67,0-1.09.15-1.07.95,0,.16-.38.43-.62.48-.49.12-1,.08-1.51.18-.19,0-.47.3-.47.45,0,.92-.49,1-1.21,1a7.74,7.74,0,0,0-1.52.07c-.25.05-.68.31-.67.45,0,1-.61,1-1.25,1-1.71,0-3.43.1-5.15.13-.58,0-1,.08-1,.82,0,.17-.37.47-.59.5a7,7,0,0,1-1.71,0c-.24,0-.66-.3-.65-.45,0-.87-.49-.86-1.1-.87l-7.06-.15c-.61,0-1.14,0-1.09-.88,0-.56-.47-.48-.83-.49-1.84-.06-3.69-.13-5.53-.16-.66,0-1.27,0-1.25-.93,0-.55-.52-.44-.87-.45-1.71-.06-3.43-.12-5.15-.15-.64,0-1.28.06-1.24-.93,0-.54-.51-.45-.87-.46l-5.72-.17c-.53,0-1,0-1-.75,0-.53-.39-.57-.79-.58-1.59,0-3.19,0-4.77-.12-.83-.06-2,.46-2.27-1a23.18,23.18,0,0,0-2.58-.44c-1.78-.11-3.56-.12-5.34-.16-.52,0-1,0-1.11-.7,0-.17-.47-.36-.74-.38-1.57-.15-3.15-.26-4.73-.37-.82,0-1.65,0-2.47-.1a1.18,1.18,0,0,1-.7-.21c-1.28-1-1.43-1.12-2.82-1.16l-5.53-.14c-.46,0-.87,0-1-.63,0-.18-.43-.38-.69-.43a19.3,19.3,0,0,0-2.62-.31c-2.42-.08-4.83-.1-7.25-.16-.52,0-1.19.18-1.29-.72,0-.15-.49-.32-.76-.35-1.26-.14-2.52-.27-3.78-.32-2.16-.08-4.32-.1-6.48-.15-.48,0-1,.13-1.16-.65,0-.18-.58-.37-.91-.39-3.42-.16-6.85-.27-10.27-.45-.84,0-1.95.46-2.33-.9,0-.11-.45-.15-.7-.16-.57,0-1.14,0-1.72,0l-14.47-.43c-.55,0-1.19.15-1.29-.72,0-.14-.37-.29-.59-.32a8.62,8.62,0,0,0-1.14,0l-25.16-.45c-.5,0-1.37,0-1.43-.16-.45-1.39-1.55-.86-2.37-.86q-19.17-.06-38.35,0c-.56,0-1.13.09-1.69.14-.47,1.54-1.76.87-2.68.88-5.34.11-10.68.09-16,.17-3.49.06-7,.21-10.47.33-.55,0-1.19-.13-1.26.77,0,.11-.52.26-.8.28-.95,0-1.91,0-2.86.07-3.43.13-6.86.25-10.28.39-.53,0-1.15-.18-1.33.7,0,.19-.71.34-1.1.37-3.05.16-6.09.28-9.13.45-.61,0-1.48-.33-1.62.82,0,.12-.67.22-1,.24-2,.06-4.07.06-6.1.14-.88,0-1.75.2-2.62.32-.24,0-.66.11-.67.22-.2,1.3-1.24.83-1.94.88-1.46.11-2.93.06-4.39.13a22,22,0,0,0-2.42.33c-.17,0-.45.16-.46.25,0,1-.79.8-1.39.82l-5.15.13c-.61,0-1.15.09-1.22.87-.05.56-.49.47-.86.48-1.27.06-2.54.08-3.81.16a10.76,10.76,0,0,0-1.86.3c-.25.06-.63.28-.66.48-.11.64-.54.61-1,.62-1.33,0-2.67.1-4,.13-.71,0-1.44,0-1.58,1,0,.16-.33.37-.52.39-1.08.07-2.16.12-3.24.11a.9.9,0,0,1-.68-.46,1.16,1.16,0,0,1,.28-.84.84.84,0,0,1,.67-.23c1.11.1.6-.92.95-1.33s1.29.16,1.35-.71c.05-.7.27-1,1-1,.18,0,.52-.27.51-.41,0-.81.39-1.13,1.15-1.1l.18-.05c.25-.46.37-1.13.75-1.33s1.15-.09,1.15-.94c0-.13.36-.26.56-.37s.61-.19.64-.33c.24-1.29,1.38-1.24,2.25-1.54a.91.91,0,0,0,.71-.71,1.18,1.18,0,0,1,.72-.73c.64-.08,1.11-.18,1.15-1,0-.13.38-.24.58-.36s.75-.24.78-.43c.22-1.24,1.26-1.21,2.11-1.41a.8.8,0,0,0,.73-.68,1.22,1.22,0,0,1,.7-.74c.44-.14.81-.16.89-.76.1-.87,1-.27,1.38-.66s.51-1,.92-1.26a4.13,4.13,0,0,1,1.49-.22c.18,0,.51-.09.51-.14,0-1.13.84-1.34,1.69-1.54-.1-1.52,1.1-1.25,1.93-1.32s1.2-.15,1.2-1c0-.15.41-.39.66-.45s.87,0,.86-.52c0-1,.55-1,1.23-.94a6.18,6.18,0,0,0,1.13-.11c.18,0,.5-.1.5-.16a1.31,1.31,0,0,1,1.5-1.42l.21-.27c-.09-1.54,1.14-1,1.86-1.14s1.27,0,1.23-1c0-.15.39-.43.63-.47.56-.1,1.14-.06,1.71-.14.21,0,.57-.24.56-.35-.11-1.39,1-1,1.68-1.15.55-.09,1.2.06,1.13-.87,0-.18.34-.52.57-.57.55-.12,1.14-.07,1.7-.17.24,0,.64-.28.65-.44,0-.77.44-.95,1.11-.95.28,0,.8-.18.81-.31.09-1.1,1.05-.94,1.68-1.16s1.39.11,1.58-1c0-.28,1-.48,1.5-.58s1.48.12,1.51-1a16.2,16.2,0,0,1,1.95-.58c.52-.09.93-.09,1.11-.76.08-.28.65-.5,1-.6a12.84,12.84,0,0,1,1.86-.28c.54-.07,1.22.14,1.21-.8,0-.12.36-.3.57-.35.55-.15,1.11-.24,1.66-.35.18,0,.52,0,.53-.09.34-1.58,1.78-1,2.71-1.38.17-.07.48-.14.49-.22.06-1.28,1.2-.86,1.84-1.15s1.49.09,1.51-1c0-.09.41-.19.65-.24.81-.15,1.61-.31,2.43-.41.53-.06,1-.07,1.07-.79,0-.16.46-.35.73-.4.93-.17,1.87-.3,2.82-.41.45,0,.86,0,1-.65,0-.19.42-.43.67-.48.94-.16,1.88-.28,2.82-.37.52,0,1,0,1.1-.74,0-.15.47-.33.74-.37.93-.16,1.86-.3,2.8-.37.57,0,1-.12,1-.81,0-.14.49-.3.76-.34.87-.15,1.74-.27,2.62-.36.56-.07,1.18,0,1.2-.85,0-.12.5-.27.78-.32,1-.15,2-.25,3-.39.23,0,.63-.17.64-.26,0-1.14.9-.81,1.53-.9.81-.11,1.62-.22,2.43-.37.23,0,.62-.19.62-.29,0-1,.79-.81,1.38-.85.75-.06,1.52-.06,2.28-.12.3,0,.82-.15.84-.29.24-1.44,1.37-1,2.21-1.07,1.39-.1,2.79-.11,4.19-.14.61,0,1.14,0,1.09-.88,0-.55.47-.49.84-.5l4.38-.14c.36,0,.88.07.85-.48,0-.84.43-.89,1.07-.9,1.91,0,3.81-.1,5.72-.19.26,0,.73-.24.73-.35-.07-1.08.64-1,1.37-1,1.27,0,2.54-.1,3.81-.11.63,0,1.12,0,1.08-.89,0-.57.5-.46.85-.47L603,624c.51,0,1,0,1.52-.06.21,0,.59-.21.58-.31-.09-1.29.84-1,1.55-1,2.29-.06,4.58-.1,6.87-.14.55,0,1.17.13,1.28-.74,0-.14.51-.28.79-.3,2.09-.15,4.17-.31,6.26-.39s4.45-.07,6.68-.11c.5,0,1,.07,1.13-.67,0-.18.6-.36.92-.38,3.17-.14,6.34-.3,9.5-.36,4.07-.08,8.14-.08,12.22-.13.58,0,1.34.26,1.42-.77,0-.1.42-.21.65-.25a6.43,6.43,0,0,1,.76,0c6.92-.15,13.84-.29,20.76-.46.72,0,1.74.39,1.93-.88a20.84,20.84,0,0,1,2.19-.47c.94-.1,1.9-.08,2.85-.11.62,0,1.35.14,1.38-.84a13.52,13.52,0,0,1,1.94-.59,16.84,16.84,0,0,1,2.46-.15c.67,0,1.3,0,1.27-.92,0-.15.43-.42.68-.45,1-.09,2-.1,3-.16.24,0,.67-.12.67-.19,0-1.31,1.24-.79,1.84-1.18.38-.25,1,0,1.09-.81,0-.18.42-.41.68-.49.54-.17,1.12-.22,1.65-.4a1,1,0,0,0,.6-.54,1,1,0,0,1,1.11-.83c.5,0,.83-.14.93-.71,0-.2.4-.39.65-.47.47-.16,1-.24,1.46-.37.23-.06.64-.13.66-.25.23-1.27,1.39-1,2.17-1.38.25-.11.58-.3.63-.51.11-.46.37-.7.78-.66,1,.09.67-.86,1-1.28s1.38.07,1.57-.79c.11-.54.2-1,.88-1,.18,0,.45-.42.46-.67,0-.58.29-.79.84-.76a.85.85,0,0,0,1-.72c.09-.54.3-.72.84-.78a2.12,2.12,0,0,0,2.12-1.9c.07-.44.06-1.14.94-1.21.25,0,.35-.95.67-1.34s1.14.15,1.21-.59.27-1.08,1.09-1.16.15-1,.63-1.39,1.21.2,1.23-.53c0-.93.38-1.25,1.25-1.21.09,0,.25-.38.29-.6.09-.44.09-.89.18-1.32,0-.21.22-.57.33-.57,1,0,1.17-.51,1.11-1.33a.57.57,0,0,1,.68-.69c.6,0,.76-.26.75-.8a9.63,9.63,0,0,1,.11-1.52c0-.23.15-.6.29-.63,1.34-.26.91-1.44,1.21-2.24.1-.27.26-.75.38-.75,1.39,0,1-1,1.13-1.74s-.08-1.44,1-1.43c.14,0,.4-.44.43-.7.09-.75.1-1.52.12-2.28s0-1.24.93-1.33c.19,0,.42-.58.46-.92.1-.75.08-1.52.14-2.28,0-.59-.19-1.35.84-1.38.11,0,.27-.4.3-.62.16-1.44.32-2.89.43-4.34.05-.52,0-1,.72-1.08.14,0,.32-.37.35-.58a22.29,22.29,0,0,0,.3-2.82c.07-7,.14-14,.14-21q0-166.11,0-332.21c0-2.55,0-2.58,2.52-2.58l22.51.05c.57,0,1.52-.14,1.65.11.92,1.79,2.71.78,4,1.34.46.2,1,.12,1,.82,0,.15.32.33.52.39.55.15,1.11.23,1.66.37.23.06.63.18.64.29,0,1.11,1,1,1.65,1.2s1.2.19,1.27,1.05c0,.19.46.35.72.52s.65.28.68.47a1.09,1.09,0,0,0,1.1,1.07c.16,0,.44.19.44.28,0,.91.7.82,1.24,1.1.37.2.34,1.28.68,1.39,1.31.42,1.13,1.44,1.25,2.39,0,.21.25.56.36.55,1.3-.11,1,.86,1.09,1.55.08.49.15,1.39.28,1.4,1.8.14,1.06,1.53,1.26,2.43.13.55.2,1.11.31,1.66,0,.18.11.48.2.49,1.37.22.91,1.31.94,2.08.08,2.16.08,4.32.08,6.49Z" transform="translate(-12.09 -105)"/></svg>