<svg id="Layer_3" data-name="Layer 3" xmlns="http://www.w3.org/2000/svg" viewBox="0 0 675.81 675.93"><defs><style>.cls-1{fill:#393939;}</style></defs><path class="cls-1" d="M744.45,401.87q0,110,0,220c0,43.8-17.88,78.06-55.42,101.31C671,734.37,651,739,630,739q-91.59.15-183.18,0c-61.05,0-122.11.13-183.17,0-31.87-.09-63.92,1.33-95.55-1.57-44-4-74-29.4-91.41-69.73-6.47-15-8-31-8-47.09q0-123.17.11-246.32c0-66-.43-132.12.15-198.17.46-51.72,31.48-93.13,80.91-107.87,12.73-3.8,26.7-4.65,40.12-4.71,81.47-.37,163-.09,244.44-.09q96.27,0,192.55-.11c44.08,0,78.48,17.91,101.78,55.7,10.5,17,15.39,35.94,15.49,55.9.22,45.22.14,90.44.16,135.66q0,45.65,0,91.28ZM508,391.49c2.63-1.54,4.5-2.7,6.43-3.76,15.65-8.63,28.64-20,36.91-36.13,9.7-19,10.77-39.4,8.46-59.79-2.81-24.67-14.32-45.34-35.18-59.4a127.33,127.33,0,0,0-71.8-22.09c-63.56-.26-127.12,0-190.67,0-9.54,0-9.55.1-9.55,9.4q0,188.79-.13,377.59c0,5.7,1.84,7,7.14,7q79.39-.24,158.79,0c28.41.12,56.64-.59,84-9.74,25.11-8.41,47.41-21,61.36-44.4C580,522.91,585,493.33,577.58,462.34c-7-29.21-22.85-52-51.3-64.39C520.65,395.51,514.69,393.83,508,391.49Z" transform="translate(-68.66 -63.33)"/><path class="cls-1" d="M391.46,425.08c19,0,37.92-.48,56.86.12,25.08.8,45.76,10.41,56.07,34.58s7.37,47.52-9.77,67.85c-11.8,14-28.15,20.19-46,20.44-40.19.57-80.4.19-120.6.34-4.45,0-5.75-1.77-5.74-5.94q.12-55.92,0-111.85c0-4.69,2.13-5.47,6.12-5.44,21,.12,42.08.05,63.12.05Z" transform="translate(-68.66 -63.33)"/><path class="cls-1" d="M387.43,266.85c17.5,0,35-.23,52.5,0,15.49.25,29.68,4.43,40.26,16.58A43.56,43.56,0,0,1,490.81,309c1.57,19.32-.74,37.46-15.81,51.78-9.33,8.86-20.55,13.79-33.14,14-33.32.53-66.67.32-100,.4-4.58,0-9.18-.24-13.75,0-4.29.22-6-1.37-5.89-5.75.18-8.12-.13-16.25-.12-24.37,0-23.75.28-47.5.08-71.25-.05-5.52,1.64-7.16,7.12-7.08C348.67,267,368.05,266.85,387.43,266.85Z" transform="translate(-68.66 -63.33)"/></svg>