<svg id="Layer_1" data-name="Layer 1" xmlns="http://www.w3.org/2000/svg" viewBox="0 0 596.15 684.94"><defs><style>.cls-1{fill:#393939;}</style></defs><path class="cls-1" d="M408,743.76h-3.36a10.07,10.07,0,0,0-2.35-1.53c-1.2-.38-2.56-.26-3.76-.63-5.3-1.63-10.57-3.35-15.84-5q-9.46-3-18.92-6.06c-6.08-2-12.14-4-18.25-5.89-6.35-2-12.77-3.71-19.11-5.71-7.82-2.46-15.59-5.09-23.4-7.62q-9.57-3.1-19.16-6.15t-19-6c-6.2-1.92-12.45-3.73-18.63-5.72s-12.37-4.26-18.6-6.23-12.72-3.67-19-5.67c-7.81-2.49-15.56-5.18-23.34-7.74-7-2.29-14-4.3-20.92-6.83a17.86,17.86,0,0,1-11.84-14.28c-1.5-9.08-1.94-18.34-2.76-27.53q-1.41-15.92-2.66-31.86c-1-13-1.86-26.07-2.86-39.1-.76-10-1.66-20-2.45-30-1-12.3-1.89-24.61-2.85-36.92q-1.22-15.72-2.46-31.42Q135,437.42,133.61,419q-1.22-15.71-2.45-31.41c-.94-11.74-1.93-23.47-2.85-35.21-.88-11.2-1.68-22.4-2.54-33.59Q124.41,301,123,283.26q-1.32-16.78-2.61-33.58c-.91-11.74-1.79-23.49-2.73-35.24-.86-10.78-1.84-21.56-2.67-32.34-1-12.55-1.75-25.11-2.72-37.66-.79-10.24-2-20.45-2.55-30.69-.75-13-1.18-26-1.49-39,0-1.84,1.09-3.85,2.08-5.56,4.58-7.88,11.92-10.4,20.57-10.4q274.31,0,548.6.11a40.74,40.74,0,0,1,14.71,2.58c5.64,2.24,10.23,7.13,10.19,13.29-.09,13.91-1.24,27.82-2.16,41.72-.78,11.84-1.85,23.66-2.79,35.49q-1.36,17.13-2.73,34.26c-.89,11.36-1.73,22.71-2.62,34.06s-1.84,22.86-2.71,34.3c-1,13-1.86,26.06-2.87,39.08-.74,9.6-1.65,19.19-2.41,28.79-1,12.94-1.93,25.88-2.94,38.82-.76,9.75-1.63,19.5-2.4,29.26-1,12.62-1.92,25.25-2.9,37.88-.79,10.16-1.62,20.31-2.4,30.47-1,12.71-1.94,25.42-2.93,38.13q-1.17,15.09-2.38,30.19-1.47,18.46-2.92,36.92c-.87,11-1.7,22.07-2.56,33.1q-1.36,17.51-2.75,35c-.53,6.75-.57,13.59-1.69,20.24-1,5.73-4.05,10.77-9.63,13.23-5.17,2.29-10.64,3.92-16,5.71-8,2.64-16,5.17-24.07,7.75q-9.12,2.92-18.23,5.85-11.61,3.69-23.23,7.37c-5,1.56-10,3-15,4.61-6.45,2.06-12.87,4.22-19.32,6.28-4.64,1.48-9.33,2.82-14,4.31-4.9,1.57-9.75,3.29-14.64,4.87-5.14,1.65-10.31,3.18-15.44,4.81-4.83,1.53-9.61,3.18-14.44,4.68-6.34,2-12.71,3.81-19,5.81-4.79,1.51-9.5,3.27-14.29,4.78S433,735.52,428.08,737c-5.91,1.74-11.83,3.44-17.72,5.24A10.22,10.22,0,0,0,408,743.76ZM406.45,183.1H260.53c-14.08,0-28.16.05-42.24,0-2.63,0-3.68.87-3.38,3.5q.74,6.28,1.28,12.59,1.29,15.35,2.5,30.7c1,12.39,1.89,24.79,2.85,37.18q1.22,15.72,2.46,31.43,1.42,18.21,2.84,36.44c.85,10.87,1.71,21.74,2.5,32.62,1,14,2.1,28,2.85,41.94.16,3.12,1.07,3.82,4,3.78,13.12-.14,26.24-.06,39.36-.06q111.84,0,223.68-.06c2.55,0,3.62.47,3.29,3.22-.56,4.58-.93,9.18-1.3,13.78-.83,10.4-1.65,20.8-2.4,31.21-1,14.13-1.95,28.28-3.07,42.41a4.54,4.54,0,0,1-2.05,3.12,26.09,26.09,0,0,1-5.53,1.78c-3.86,1.08-7.72,2.16-11.59,3.2-4.29,1.16-8.6,2.25-12.89,3.43-5.5,1.53-11,3.2-16.48,4.66-5.78,1.54-11.62,2.83-17.4,4.37s-11.62,3.12-17.35,5c-4.66,1.49-8.81-.6-13.13-1.44-3.75-.73-7.43-1.84-11.11-2.88-5.66-1.59-11.28-3.33-16.94-4.89-4.29-1.17-8.66-2.08-12.95-3.26-5.65-1.54-11.23-3.32-16.89-4.82s-11.49-2.67-17.17-4.23c-2.15-.59-3.62-1.71-3.57-4.77.25-17,0-33.92.2-50.88,0-3.52-.76-4.61-4.43-4.56-14.64.23-29.28.1-43.92.1-11.44,0-22.88-.05-34.32.09-1,0-2.8,1.41-2.75,2.07.48,6.73,1.37,13.43,1.94,20.16,1,11.91,1.88,23.83,2.8,35.75.86,11.19,1.77,22.38,2.55,33.57.61,8.83,1,17.67,1.64,26.49a3.88,3.88,0,0,0,1.75,2.89c4.16,1.54,8.44,2.72,12.67,4.08,7.95,2.56,15.88,5.17,23.84,7.73,6.09,2,12.21,3.85,18.3,5.8,6.46,2.07,12.9,4.17,19.35,6.25s12.94,4.17,19.42,6.21c4.86,1.53,9.73,3,14.6,4.47,4.65,1.41,9.32,2.77,14,4.24,5.11,1.62,10.19,3.35,15.28,5s10,3.4,15.11,4.93c3.87,1.17,7.54,2.8,11.94,1,5.83-2.39,12-4,18-5.88,6.33-2,12.7-3.76,19-5.74,8-2.51,15.94-5.14,23.92-7.68,4.76-1.51,9.56-2.9,14.32-4.45,6.22-2,12.38-4.23,18.61-6.19s12.8-3.68,19.14-5.71c6.17-2,12.21-4.35,18.39-6.3,7.73-2.45,15.56-4.58,23.29-7,1.15-.36,2.68-1.71,2.81-2.76.72-5.75,1.07-11.54,1.53-17.32q1.22-15.48,2.41-30.95,1.47-18.94,2.93-37.88c.8-10.15,1.62-20.3,2.4-30.46,1-12.95,1.94-25.91,3-38.86.8-10.23,1.69-20.45,2.48-30.69,1-12.87,1.83-25.75,2.91-38.61.27-3.22-.77-3.94-3.9-3.94q-133.32.13-266.64.07a9,9,0,0,1-2.38-.06,2.21,2.21,0,0,1-1.43-1.16,54.17,54.17,0,0,1-1.18-6.79c-.62-6.26-1-12.55-1.7-18.8-1.07-9.21-2.5-18.39-3.54-27.61-.76-6.79-1.15-13.61-1.71-20.42a3.84,3.84,0,0,0-.25-1.41c-1.65-3.25-.27-3.76,2.84-3.76q140.64.11,281.28.06c.88,0,2,.31,2.6-.08,1-.63,2.48-1.65,2.57-2.62,1-9.66,1.73-19.33,2.48-29,1-12.87,1.87-25.75,3-38.6.33-3.78-.94-4.71-4.63-4.7Q499.8,183.18,406.45,183.1Z" transform="translate(-108.21 -58.82)"/></svg>