<svg id="Layer_6" data-name="Layer 6" xmlns="http://www.w3.org/2000/svg" viewBox="0 0 681.67 681.67"><defs><style>.cls-1{fill:#393939;}</style></defs><path class="cls-1" d="M67.66,59.33H749.33V741H67.66Zm639,639.08V102.15H110.37V698.41Z" transform="translate(-67.66 -59.33)"/><path class="cls-1" d="M507.12,574.38h-81q-8.73-28.83-17.47-57.69c-2.31-7.63-4.75-15.23-6.78-22.94-1-3.92-3-5.14-7-5.12q-42.6.24-85.2,0c-4.06,0-5.73,1.35-6.81,5.31-7.28,26.7-14.86,53.33-22.42,80.28H202c5.07-16.7,10-33.19,15.07-49.65Q259.58,385.75,302,246.9c1.7-5.57,4-7.56,10-7.48,28.62.36,57.24.24,85.87.07,4.21,0,6.2,1.16,7.5,5.37q50.38,163.15,101,326.25C506.64,571.93,506.76,572.79,507.12,574.38ZM315.25,431.69h73.86C376.47,386.45,364,341.7,351.48,297l-1.27.23Z" transform="translate(-67.66 -59.33)"/><path class="cls-1" d="M537.62,332.13h74.44V574H537.62Z" transform="translate(-67.66 -59.33)"/><path class="cls-1" d="M574.39,301.67c-22.87,0-39.31-15.84-39.28-37.8,0-22.48,16.23-38,39.71-38.07s40.19,16,40.16,38.53C615,286,597.87,301.69,574.39,301.67Z" transform="translate(-67.66 -59.33)"/></svg>