<svg id="Layer_1" data-name="Layer 1" xmlns="http://www.w3.org/2000/svg" viewBox="0 0 620.52 620.52"><defs><style>.cls-1{fill:#353a3f;}.cls-2{fill:#fff;}</style></defs><circle class="cls-1" cx="310.26" cy="310.26" r="310.26"/><path class="cls-2" d="M348.81,333.28H290a8.46,8.46,0,0,1-8.46-8.46V267.11a8.46,8.46,0,0,1,8.46-8.46H510a8.46,8.46,0,0,1,8.46,8.46v57.63A8.46,8.46,0,0,1,510,333.2H451.54a8.46,8.46,0,0,0-8.46,8.46V532.89a8.46,8.46,0,0,1-8.46,8.46H365.73a8.46,8.46,0,0,1-8.46-8.46V341.74A8.46,8.46,0,0,0,348.81,333.28Z" transform="translate(-89.74 -89.74)"/></svg>