<svg id="Layer_5" data-name="Layer 5" xmlns="http://www.w3.org/2000/svg" viewBox="0 0 603.6 681.64"><defs><style>.cls-1{fill:#393939;}</style></defs><path class="cls-1" d="M415.82,59.33c11.41,4,23.38,6.82,34.14,12.11,22.69,11.16,39.28,29.58,53,50.28,9.39,14.18,17.16,29.44,25.31,44.42,1.88,3.46,3.46,4.55,7.55,4.05,29.85-3.7,59.72-4.84,89.26,2.36,29.78,7.26,54.81,21.65,70.11,49.42,14,25.33,14.23,52.28,7.6,79.52-8.08,33.21-24.07,62.79-44.17,90.14-4.72,6.41-4.71,10.65,0,17.07,20.2,27.56,36.11,57.41,44,90.92,6.32,26.84,6,53.4-7.54,78.3-14.34,26.4-37.79,41-66,48.7-30.73,8.41-61.89,7.6-93.1,3.55-4.38-.56-6.19.63-8,4.41-13.79,29-30.09,56.38-54.47,78-21.58,19.09-46.32,30.53-75.76,28.11-27.66-2.27-49.88-16-68.89-35.36-20-20.33-34.39-44.46-46.49-70-2-4.17-3.85-5.71-8.88-5-31.21,4.1-62.45,5-93.08-3.74-40.22-11.5-68.1-35.47-75.45-78.54-3.42-20-.68-39.76,5.24-59.11,9.25-30.22,24.37-57.43,42.93-82.8,3.11-4.25,3.34-7.17.12-11.56-18.59-25.34-33.9-52.48-43-82.78s-10.77-60.32,4.63-89.19c14.92-28,40-42.56,69.74-49.85,26.14-6.39,52.69-6.64,79.32-3.57,15.29,1.76,15.45,1.92,22.43-12C299,131.93,314,108.5,334.91,89.34c16.51-15.15,35.33-25.91,57.93-29.05.59-.08,1.12-.63,1.67-1ZM266.31,400.05c1.45,23.21,2.83,46.67,4.56,70.11.16,2.16,2.22,4.67,4.09,6.16a672.18,672.18,0,0,0,126,78.85,10.94,10.94,0,0,0,8.39,0c45.25-21.47,87.16-48.31,126.4-79.37a10.28,10.28,0,0,0,3.59-6.49c1.23-15.24,3-30.52,2.82-45.78-.29-30.57-1.59-61.13-2.79-91.69a11.64,11.64,0,0,0-4.06-7.57C496.2,292.92,453.77,266.9,408.79,245a10.12,10.12,0,0,0-7.79.07,674.27,674.27,0,0,0-126.47,79.28,10.21,10.21,0,0,0-3.7,6.37C269.14,353.71,267.78,376.73,266.31,400.05ZM176.7,425.71c-16.58,20.61-40.78,65-42.32,99.41-1.28,28.8,8.17,51.31,36.36,65,25.74,12.55,53.37,13.6,81.3,11.54,5.15-.38,10.27-1.1,15.94-1.73a543.39,543.39,0,0,1-24.64-103.65,17.9,17.9,0,0,0-6.75-12.19c-8.28-7-16.44-14.24-24.16-21.87C200.3,450.29,188.58,437.91,176.7,425.71Zm-.13-50.81c1-.86,1.65-1.41,2.28-2,20.24-19.85,40.52-39.66,60.64-59.64a13.76,13.76,0,0,0,3.36-6.75c4.06-20.17,7.42-40.5,12-60.56,3.45-15.24,8.31-30.15,12.61-45.44a12.65,12.65,0,0,0-2.57-.88c-24.36-2.67-48.7-3.27-72.7,2.7-16.58,4.12-31.88,11-43.33,24.31-16.51,19.23-16.67,41.81-12,64.81C143,322.18,158.36,348.81,176.57,374.9Zm458.06,51.47c-21.75,20.64-43,40.7-64,60.95a12.55,12.55,0,0,0-3.09,6.88,581.23,581.23,0,0,1-21.63,95c-1.11,3.44-2.14,6.9-3.36,10.85,30.48,3.81,59.64,4,88.19-6,31.26-11,47.38-35.42,45-68.58C672.89,487.56,654.5,456.21,634.63,426.37ZM542.31,199.51c.65,2.46.87,3.51,1.2,4.51a544,544,0,0,1,23.35,100.72c.62,4.8,3,7.85,6.33,11q22.15,20.58,43.86,41.64c5.68,5.52,10.73,11.7,16.7,18.28C640.82,364,648,353.32,654,342.06c11.45-21.17,20.25-43.32,21.56-67.76,1.53-28.84-9.17-50.79-35.84-64-17.69-8.73-36.61-11.85-56-12.32C570.18,197.69,556.52,199,542.31,199.51ZM498.7,625.41c-30.69-11.18-60.55-22.16-90.53-32.78-2.49-.88-6,.17-8.73,1.11-26.16,8.92-52.25,18-78.39,27-3.25,1.12-6.61,1.89-10.24,2.91,13.55,27.91,29.24,53.07,53.67,71.84,22.81,17.53,47.84,19.85,72.54,5.41C467.31,683.23,484.13,654.45,498.7,625.41ZM499,175.88c-13.44-28.06-29.61-54.33-55.74-72.75-20-14.12-41.88-18.3-64.54-6.77-33.65,17.11-51.7,47.64-67.82,80a13.09,13.09,0,0,0,2.3,1.29,563.66,563.66,0,0,1,88,29.71c2.27,1,5.63.71,8.06-.17,7.9-2.84,15.47-6.64,23.42-9.35C454.44,190.39,476.32,183.35,499,175.88Zm13.46,420c7.13-26.41,13.89-51.42,20.65-76.43l-1.76-.31-88.74,55.33ZM367.82,574.45,278.23,519a430.62,430.62,0,0,0,20.82,76.61Zm-90.68-293.7,1.93.33,88.64-55.26-69.93-21.3C290.61,231,283.88,255.87,277.14,280.75Zm165.3-54.93,91.05,56.52-21.24-77.91ZM237.21,444.5V355.82l-42,44.37ZM573,355.87v88.65l42-44.4Z" transform="translate(-103.39 -59.33)"/><path class="cls-1" d="M465.51,400.07a60.43,60.43,0,0,1-60.44,60.49c-33.33-.07-60.64-27.51-60.36-60.62a60.5,60.5,0,0,1,60.15-60.17C438,339.45,465.41,366.68,465.51,400.07Zm-30.57-.17A29.82,29.82,0,1,0,405.23,430,29.72,29.72,0,0,0,434.94,399.9Z" transform="translate(-103.39 -59.33)"/></svg>