<svg id="Layer_1" data-name="Layer 1" xmlns="http://www.w3.org/2000/svg" viewBox="0 0 506.49 607.68"><defs><style>.cls-1{fill:#fff;}</style></defs><path class="cls-1" d="M240.48,705.12c-.27-.42-.45-1-.82-1.2a4.12,4.12,0,0,0-1.89-.16c-3.81.35-7.43-.82-11.06-1.56-1.85-.37-3.68-.83-5.57-1.06a12.29,12.29,0,0,1-3.33-1.1c-2.95-1.29-6.21-1.6-9.1-3.21-2.63-1.46-5.62-2.27-8.3-3.66-3.64-1.89-7.17-4-10.68-6.13a74.34,74.34,0,0,1-12.38-9.75,89.46,89.46,0,0,1-11.71-13.18c-2.22-3.11-4.13-6.4-6.08-9.68-2.15-3.63-3.59-7.55-5.48-11.28a30.84,30.84,0,0,1-1.54-4.94c-.44-1.43-.87-2.86-1.38-4.27-1.13-3.15-1.45-6.49-2.29-9.69s-.64-6.36-1.24-9.46c-1.36-7-.82-14-.92-21-.06-3.44-.05-6.88.1-10.32.33-7.41.46-14.86,1.31-22.23.48-4.2.77-8.41,1.22-12.61.29-2.69.58-5.39,1-8.06.59-3.44,1.34-6.85,2-10.27.05-.24.06-.48.09-.72.46-3,.83-6.12,1.42-9.15.52-2.71,1.31-5.37,1.95-8.06.13-.54.09-1.12.21-1.66.26-1.23.57-2.45.88-3.67.48-1.83,1-3.65,1.47-5.46.7-2.5,1.43-5,2.13-7.48.52-1.82.94-3.67,1.52-5.47s1.37-3.82,2.07-5.72c.46-1.27,1-2.51,1.4-3.78a99.56,99.56,0,0,1,6.79-16c2.08-3.86,3.9-7.87,6.08-11.68,2.31-4,4.86-7.92,7.39-11.82a108.91,108.91,0,0,1,10.48-13.17,104.37,104.37,0,0,1,18.37-16,132.42,132.42,0,0,1,13-7.7,93.31,93.31,0,0,1,9.53-3.9c1.52-.62,3-1.31,4.56-1.86,1.77-.62,3.57-1.19,5.38-1.67,2.74-.73,5.5-1.35,8.26-2a4.18,4.18,0,0,1,.7-.16c4.91-.41,9.71-1.75,14.71-1.56,2.36.09,4.73-.61,7.11-.66a31.34,31.34,0,0,1,10.42,1.77c4.54,1.48,8.51,4,12.51,6.42,5.24,3.2,10.25,6.79,15.51,10,6.16,3.72,11.91,8.11,18.43,11.25,2.81,1.36,5.5,3,8.36,4.22,2.56,1.12,5.28,1.89,7.93,2.83,1.1.4,2.18.88,3.28,1.3l8.11,3.11a3.22,3.22,0,0,0,.67.2,33.41,33.41,0,0,1,8.15,2.3l.24.05c2.73.44,5.51.7,8.2,1.35,5.81,1.4,11.75.9,17.61,1.5,3,.31,5.83-.34,8.76-.24a52.76,52.76,0,0,0,8.62-.29c3.21-.41,6.37-1.28,9.55-1.95a3.4,3.4,0,0,1,.7-.11c3.29-.08,6.3-1.21,9.37-2.25,1.61-.54,3.38-.6,5-1.31,2.87-1.23,5.82-2.3,8.74-3.43,1.17-.45,2.37-.83,3.54-1.27,2.12-.79,4.24-1.56,6.34-2.41a99.14,99.14,0,0,0,12.24-6.23c3.21-1.85,6.33-3.88,9.44-5.91,3.84-2.51,7.56-5.19,11.44-7.62,5.27-3.3,10.56-6.62,16-9.58a21.7,21.7,0,0,1,9.1-3.05c2-.11,4-1,6.1-.62,4.66.89,9.4.51,14.07,1,3.2.35,6.32,1.39,9.5,1.95a32.1,32.1,0,0,1,5.79,1.23c2.33.87,4.76,1.48,7.12,2.28s4.61,1.58,6.86,2.51a87.7,87.7,0,0,1,8.73,3.92q5.93,3.25,11.54,7a90.82,90.82,0,0,1,17.9,15.64,111.06,111.06,0,0,1,10.25,13c2.55,4,5.25,7.88,7.7,11.93,1.54,2.55,2.71,5.31,4.07,8,1.45,2.82,3,5.62,4.4,8.45a26.78,26.78,0,0,1,1.3,3c.94,2.66,1.76,5.36,2.76,8s2.16,5.19,3.2,7.81a32.11,32.11,0,0,1,1.19,3.59c.55,2.06,1,4.15,1.56,6.21s1.27,4,1.8,6.1c.61,2.37,1.11,4.78,1.65,7.17.63,2.78,1.25,5.56,1.89,8.34.07.3.26.59.32.89.4,2,.78,4.05,1.15,6.07.4,2.19.85,4.37,1.18,6.57.49,3.37.87,6.76,1.35,10.14.21,1.5.58,3,.81,4.46.18,1.26.31,2.53.39,3.8a59.71,59.71,0,0,0,.78,8.08c.55,2.63.28,5.42.44,8.13.16,2.47.44,4.93.62,7.4.2,2.63.48,5.26.5,7.9q.07,14.38,0,28.79a32.11,32.11,0,0,1-.75,4.93,7.48,7.48,0,0,0-.3,1.64c.26,3.48-.84,6.78-1.35,10.14a56.69,56.69,0,0,1-2,7.26c-.87,2.94-1.74,5.88-2.67,8.79a22.45,22.45,0,0,1-1.32,3c-1.39,2.79-2.84,5.55-4.24,8.34a72.46,72.46,0,0,1-6.72,10.58,89,89,0,0,1-15.38,16.13,92,92,0,0,1-10.52,7.63c-3.45,2.06-6.86,4.28-10.74,5.62-2.41.84-4.62,2.25-7,3.24a48,48,0,0,1-4.75,1.4c-1.75.52-3.48,1.08-5.22,1.61-.82.25-1.63.49-2.46.7-1.22.3-2.45.56-3.67.84-.47.1-.93.23-1.4.31-3.84.62-7.62,1.63-11.57,1.39-.91-.06-1.81.06-1.85,1.31Z" transform="translate(-146.68 -97.44)"/><path class="cls-1" d="M409,97.44a4.92,4.92,0,0,0,1.14.78,9.1,9.1,0,0,0,1.89.31c4.18.47,8.38.82,12.55,1.43a62.55,62.55,0,0,1,6.63,1.69c.76.19,1.51.4,2.26.58,2.22.54,4.46,1,6.65,1.64a56.59,56.59,0,0,1,5.52,2c3.55,1.43,7.09,2.87,10.6,4.4,2.93,1.27,5.86,2.55,8.67,4.06s5.57,3.38,8.38,5a120.75,120.75,0,0,1,15.6,11.33,136.59,136.59,0,0,1,13,12.11c3.91,4.22,7.94,8.38,11.25,13.13,2.22,3.18,4.87,6.09,6.79,9.44,3.06,5.35,6.68,10.4,8.83,16.27.8,2.17,2.17,4.11,3.17,6.21a28.3,28.3,0,0,1,1.16,3.32c.93,2.83,1.75,5.71,2.8,8.49a56.12,56.12,0,0,1,2.42,9.61c.43,2.33,1.24,4.58,1.87,6.87a5.47,5.47,0,0,1,.16.7c.51,5,1,10,1.51,15,.29,3,.57,6,.75,9.07a50,50,0,0,1,0,5.74c-.17,2.95-.54,5.88-.74,8.82-.22,3.18.06,6.41-1.14,9.47a3.35,3.35,0,0,0-.12,1.19,41.51,41.51,0,0,1-2.27,12.13c-.66,2.11-.83,4.36-1.36,6.51-.43,1.76-1,3.49-1.59,5.2q-1.53,4.44-3.15,8.85a36,36,0,0,1-1.46,3.45c-1.86,3.77-3.65,7.58-5.68,11.25s-4.12,7.19-6.44,10.61c-2.66,3.91-5.47,7.73-8.44,11.42a115.25,115.25,0,0,1-7.78,8.62c-3.56,3.62-7.16,7.23-11,10.58-3.5,3.07-7.35,5.74-11,8.65a56.89,56.89,0,0,1-9.17,6c-2.12,1.11-4,2.62-6.14,3.77s-4.58,2.22-6.88,3.32c-1.89.91-3.75,1.88-5.68,2.71-1.71.74-3.49,1.35-5.25,2-1.33.47-2.74.74-4,1.33a27.68,27.68,0,0,1-7.66,2.31,49,49,0,0,0-6.56,1.93c-.22.07-.45.13-.68.18-1.79.37-3.57.82-5.37,1.07-3.86.53-7.72,1.06-11.59,1.38-4.45.36-8.93-.09-13.38.76-1.81.35-3.79-.18-5.69-.32-1-.08-2.06-.22-3.09-.25-2.56-.08-5.12-.07-7.68-.15-1.9-.06-3.84.12-5.63-.8a2.85,2.85,0,0,0-.94-.14c-3.62-.51-7.27-.9-10.86-1.57-2.23-.42-4.39-1.26-6.58-1.9a5.87,5.87,0,0,0-1.15-.29,19.18,19.18,0,0,1-7.19-2.14,28.93,28.93,0,0,0-4-1.35,68,68,0,0,1-10.2-4.17c-2.18-1.06-4.43-2-6.57-3.11-1.92-1-3.72-2.22-5.57-3.34-2.41-1.45-4.94-2.71-7.2-4.36-5.64-4.11-11.14-8.4-16.46-12.95-6.24-5.32-11.4-11.6-17-17.45a59.28,59.28,0,0,1-6.21-8.47c-2.85-4.29-5.67-8.6-8.26-13.05-1.82-3.12-3.25-6.47-4.82-9.73-1.09-2.25-2.18-4.5-3.17-6.79a18.71,18.71,0,0,1-1.39-4c-.6-3.18-2.21-6-2.87-9.23s-1.33-6.19-2.24-9.19c-.78-2.57-.81-5.18-1.3-7.74a120,120,0,0,1-2-21.64c0-5.59-.2-11.2.88-16.73l0-.24c.51-4.43.92-8.87,1.57-13.28.35-2.33,1.13-4.59,1.71-6.88s1-4.32,1.64-6.45,1.24-4,1.91-6.06c.42-1.26,1-2.47,1.38-3.74,1.6-5.76,4.4-11,7.19-16.22,2.09-3.92,4.39-7.74,6.76-11.5a135.26,135.26,0,0,1,14.89-19.18,146.2,146.2,0,0,1,19-17.7c4.26-3.23,8.41-6.61,13.19-9.13,3.16-1.67,6.08-3.77,9.22-5.45,2.8-1.5,5.72-2.76,8.64-4,3.67-1.56,7.36-3.07,11.09-4.47,1.76-.66,3.64-1,5.46-1.48a64.51,64.51,0,0,1,7.48-2c2.9-.42,5.58-1.61,8.6-1.68a89.14,89.14,0,0,0,11.1-1.42c.48-.07.89-.56,1.34-.85Z" transform="translate(-146.68 -97.44)"/></svg>