<svg id="Layer_2" data-name="Layer 2" xmlns="http://www.w3.org/2000/svg" viewBox="0 0 598.08 684.48"><defs><style>.cls-1{fill:#393939;}</style></defs><path class="cls-1" d="M108,57.36H706.08a33.48,33.48,0,0,1-.43,6.2,35.41,35.41,0,0,0-.94,7.58c-.07,2.56-.11,5.12-.32,7.67s-.68,5.37-.94,8.07c-.2,2.14.06,4.38-.45,6.44-.84,3.4-.71,6.82-.88,10.25a17.28,17.28,0,0,1-.36,4.28c-1.08,3.44-.88,7-1,10.46-.1,2.15-.31,4.3-.54,6.44-.21,2-.58,3.94-.73,5.93-.18,2.47.16,5-.37,7.41A68.06,68.06,0,0,0,698,150.24a16.58,16.58,0,0,1-.28,3.81c-.84,2.9-.71,5.86-.87,8.81a26.86,26.86,0,0,1-.47,5.48,34.84,34.84,0,0,0-.88,8.31c-.09,3.36.06,6.73-1.09,10a4.83,4.83,0,0,0-.16,1.43c-.23,5-.52,10-1.16,15-.71,5.67-.81,11.45-1.47,17.16-.32,2.77,0,5.65-.61,8.35a56.42,56.42,0,0,0-.85,8.57,44.33,44.33,0,0,1-.57,7.4,48.43,48.43,0,0,0-.81,8.8,29.42,29.42,0,0,1-.44,5.73,41.72,41.72,0,0,0-.92,9,29.81,29.81,0,0,1-.35,6.21,48.54,48.54,0,0,0-1,9.75,21.65,21.65,0,0,1-.29,4.78c-1.06,4-.84,8.09-1.15,12.14a17.55,17.55,0,0,1-.28,3.58c-.92,3.13-.72,6.34-.87,9.52a26,26,0,0,1-.42,5.25c-.9,3.38-.84,6.8-1,10.23a18.28,18.28,0,0,1-.39,4.76,28.41,28.41,0,0,0-1,7.82c-.08,2.39-.11,4.8-.33,7.18-.26,2.94-.77,5.85-1,8.78-.58,6.92-1.06,13.84-1.59,20.77,0,.31-.11.63-.14.94-.28,2.37-.64,4.74-.8,7.12-.21,3.42.14,6.89-1.14,10.19a5.14,5.14,0,0,0-.17,1.43c-.27,5.09-.41,10.16-1.19,15.25-.85,5.64-.5,11.46-1.42,17.16-.44,2.75,0,5.65-.59,8.36-.81,3.73-.71,7.46-.91,11.2a19.64,19.64,0,0,1-.47,4.75,30,30,0,0,0-.87,7.59,46.55,46.55,0,0,1-.51,7.4,47.64,47.64,0,0,0-.88,8.57,32,32,0,0,1-.36,6.44,48.7,48.7,0,0,0-1,9.76,21.51,21.51,0,0,1-.32,4.77c-.77,2.84-.69,5.7-.85,8.57a36.07,36.07,0,0,1-.51,6.68c-.87,3.48-.76,7-.93,10.48a24.42,24.42,0,0,1-.46,5,37,37,0,0,0-.87,8.32,32,32,0,0,1-.38,6.21,48.75,48.75,0,0,0-1,10c0,1.83-.12,3.67-.31,5.5-.3,3-.76,6-1,9-.2,2.06.09,4.22-.38,6.21a51.88,51.88,0,0,0-.88,9.28c-.11,2-.29,4-.5,6-.22,2.14-.59,4.26-.75,6.4-.19,2.47.19,5-.41,7.4-1,4-.85,7.93-1.09,11.91-.12,1.89-.52,3.77-.78,5.66-.17,1.27-.39,2.53-.46,3.8a116.28,116.28,0,0,1-1,12.88c-.85,5.09-.86,10.32-1.37,15.48-.55,5.55-.75,11.14-1.58,16.67-.18,1.16-.51,1.92-1.73,2.24-2,.52-4,1.15-5.93,1.74-2.35.71-4.69,1.45-7.06,2.11s-4.93,1.22-7.38,1.92c-3.81,1.08-7.59,2.27-11.4,3.35-2.37.67-4.78,1.18-7.15,1.81-4.68,1.24-9.35,2.52-14,3.78-.31.08-.61.2-.91.3-2.11.7-4.18,1.51-6.33,2.08-3.9,1-7.85,2-11.78,2.94-.3.07-.59.23-.89.32-2.42.75-4.83,1.55-7.26,2.24s-4.62,1.19-6.93,1.79c-1.46.37-2.93.72-4.37,1.16-2.42.73-4.79,1.61-7.23,2.29-3.9,1.08-7.85,2-11.77,3.06-1.69.44-3.38.9-5,1.39-2.59.75-5.15,1.56-7.74,2.29-2.3.65-4.62,1.22-6.92,1.83-1.62.43-3.23.86-4.83,1.33-2.35.7-4.68,1.46-7,2.15-2.66.77-5.34,1.5-8,2.24-2.07.58-4.14,1.16-6.22,1.7-2.3.6-4.63,1.1-6.92,1.73-3.06.83-6.09,1.76-9.14,2.63-1.91.54-3.85,1-5.75,1.57-2.2.66-4.35,1.51-6.56,2.11-3.91,1.06-7.86,2-11.78,3-1.92.5-3.82,1.08-5.72,1.65-2.28.68-4.54,1.41-6.82,2.08-2.66.78-5.34,1.53-8,2.26-2.22.61-4.46,1.18-6.69,1.76s-4.62,1.17-6.91,1.82c-2.51.72-5,1.47-7.5,2.3-1.26.43-2.45,1.07-3.67,1.61h-2.4a6.68,6.68,0,0,0-3.64-1.67,13.8,13.8,0,0,1-2-.65c-2.21-.66-4.41-1.35-6.63-1.94-2.45-.66-4.94-1.16-7.38-1.83-2.23-.61-4.41-1.36-6.62-2-1.6-.49-3.19-1-4.8-1.42-2.38-.61-4.8-1.08-7.17-1.73-3.07-.83-6.1-1.78-9.15-2.66-1.91-.55-3.84-1-5.75-1.59-2.36-.69-4.69-1.46-7.06-2.11s-4.93-1.24-7.38-1.89c-2.77-.72-5.52-1.48-8.28-2.24-.46-.12-.91-.3-1.36-.44-2.35-.73-4.68-1.5-7-2.16s-4.64-1.13-6.95-1.74c-1.69-.45-3.35-1-5-1.48-2.27-.69-4.53-1.45-6.82-2.08s-4.78-1.17-7.17-1.77c-1.62-.41-3.22-.87-4.84-1.31l-8.7-2.41c-.39-.11-.77-.21-1.15-.33-2.2-.69-4.38-1.44-6.59-2.06-2.38-.66-4.79-1.18-7.17-1.81-1.77-.47-3.52-1-5.27-1.51-2.42-.73-4.82-1.54-7.25-2.23-2.22-.62-4.49-1.08-6.72-1.67-1.69-.45-3.36-1-5-1.46-2.42-.73-4.82-1.5-7.25-2.19s-4.92-1.27-7.37-1.94c-2.22-.61-4.41-1.32-6.64-1.92s-4.78-1.12-7.15-1.76c-3-.81-5.94-1.73-8.92-2.57-1.68-.47-3.43-.76-5.08-1.32a53.23,53.23,0,0,0-10.06-2.79,2.8,2.8,0,0,1-.46-.16l-7.79-2.23c-2.21-.63-4.42-1.26-6.63-1.91s-4.55-1.38-6.82-2.06c-1.6-.48-3.19-.95-4.8-1.4a1.77,1.77,0,0,1-1.36-1.74c-.39-3.65-.91-7.28-1.17-10.94-.48-6.68-1.7-13.31-1.49-20.05a3.05,3.05,0,0,0-.11-.95c-1.34-4.2-1-8.55-1.18-12.85,0-1.11-.21-2.22-.36-3.33-.29-2.12-.71-4.24-.88-6.37-.21-2.71.14-5.51-.42-8.13a67.46,67.46,0,0,1-1.06-11,16.71,16.71,0,0,0-.27-3.82c-.89-3.13-.72-6.33-.89-9.52-.12-2.07-.28-4.15-.48-6.21-.25-2.54-.66-5.06-.82-7.6-.21-3.34.1-6.73-1.15-9.95a3.89,3.89,0,0,1-.15-1.19c-.29-5.17.15-10.41-1.36-15.47.25-6.82-1.06-13.53-1.47-20.3-.38-6.45-1.54-12.84-1.58-19.32a2.76,2.76,0,0,0-.09-.71c-1.18-3.66-.82-7.44-1-11.19-.09-1.67-.24-3.34-.41-5-.28-2.69-.66-5.38-.88-8.08-.19-2.3.13-4.71-.39-6.93a56,56,0,0,1-1.05-10.47c-.07-1.51-.2-3-.37-4.54-.2-1.73-.57-3.46-.72-5.2-.23-3,0-6-.6-8.84-.76-3.58-.7-7.15-.88-10.73a22.33,22.33,0,0,0-.41-5,35.8,35.8,0,0,1-.93-8.79c-.08-2.16-.19-4.32-.4-6.46-.26-2.78-.69-5.54-.94-8.32-.19-2.22.12-4.55-.39-6.69a54.31,54.31,0,0,1-1.06-10.23,26.09,26.09,0,0,0-.34-5.25c-.79-3.08-.69-6.18-.86-9.29-.12-2.07-.35-4.14-.58-6.2-.18-1.58-.57-3.15-.64-4.73-.2-4.23,0-8.49-1.15-12.63a7,7,0,0,1-.19-1.66c-.28-4.69.17-9.46-1.33-14a1.54,1.54,0,0,1,0-.48c.24-6.74-1.14-13.36-1.44-20-.29-6.38-1.65-12.68-1.43-19.1a3.44,3.44,0,0,0-.14-1.19c-1.34-3.95-1-8.06-1.17-12.12-.07-1.51-.23-3-.4-4.53-.27-2.29-.67-4.57-.85-6.87-.21-2.55.12-5.19-.42-7.65a57,57,0,0,1-1-10.23,19.13,19.13,0,0,0-.29-4.3c-.85-3.07-.72-6.18-.88-9.29a23.94,23.94,0,0,0-.44-5.24c-1-3.38-.8-6.81-1-10.24a31.9,31.9,0,0,0-.48-6,41.88,41.88,0,0,1-.88-8.56c-.07-2.15-.2-4.31-.41-6.46-.25-2.61-.68-5.21-.91-7.83-.2-2.39-.17-4.79-.37-7.18s-.62-4.74-.83-7.12c-.25-2.79-.06-5.65-.62-8.36a54.53,54.53,0,0,1-.82-8.33q-.18-3.22-.5-6.45c-.24-2.38-.65-4.74-.79-7.12-.2-3.42.05-6.88-1.09-10.21a7.05,7.05,0,0,1-.2-1.9c-.23-4.62-.36-9.22-1-13.84-1-7-1.28-14.14-1.79-21.23-.45-6.44-1.66-12.83-1.45-19.33a3.79,3.79,0,0,0-.2-1.42c-1.09-3.17-.84-6.47-1-9.74-.16-2.62-.64-5.21-.83-7.83C108,61.48,108,59.42,108,57.36ZM407.12,183.18H221.85c-4.41,0-5.2.73-4.24,5.08.82,3.73.69,7.47.86,11.21.12,2.63-.07,5.34.47,7.88.83,4,.78,7.94.9,11.93.07,2.48-.21,5,.32,7.42a54.22,54.22,0,0,1,1,12.88,94.33,94.33,0,0,0,1.17,13.11c.21,1.7.76,2.19,2.48,2.31.87.06,1.76.05,2.64,0,19.09-.4,38.19.37,57.3-.6,13.57-.69,27.19-.18,40.79-.21l183.11-.34c1.12,0,2.24,0,3.35,0,2.62.11,3.16.94,2.71,3.51s-.8,5.36-1,8-.14,5.28-.21,7.92c0,.8-.1,1.59-.19,2.39-.27,2.29-.63,4.58-.8,6.88-.25,3.43-.32,6.87-.57,10.3-.18,2.46-.6,4.9-.75,7.36s-.08,5-.2,7.43c-.06,1.36-.29,2.7-.47,4.05-.23,1.73-.62,3.45-.71,5.19-.17,3.36-.12,6.72-.27,10.08-.1,2.39-.74,2.93-3,3.12-10.37.83-20.76,1.05-31.16,1.09-15.44.08-30.88,0-46.32.19s-30.84-.49-46.25.78c-7.64.63-15.35.39-23,.43-15.2.1-30.4,0-45.6.2s-30.35-.24-45.54.73c-11.24.71-22.55.26-33.83.33-.88,0-1.76,0-2.63.09-1.13.06-1.84.62-1.79,1.8a85.42,85.42,0,0,0,.62,10.27,55.14,55.14,0,0,1,.84,7.11,26.38,26.38,0,0,0,.41,5.72,34.69,34.69,0,0,1,1,7.83c.06,1.83.19,3.67.42,5.49s.69,3.44.84,5.18c.27,2.94.49,5.86.91,8.8.71,4.88.76,9.83,1.54,14.74.74,4.66.44,4.89,5.09,4.78,3.67-.09,7.32-.64,11-.64q122.88-.15,245.74-.22c.56,0,1.13,0,1.68,0,2.14.12,2.56.7,2.05,2.7a11.36,11.36,0,0,0-.59,2.57c0,4.8-.88,9.52-1.39,14.28-.62,5.95-.88,11.95-1.84,17.84a101,101,0,0,0-1.07,10.94c0,.8-.23,1.58-.33,2.38-.31,2.44-.65,4.89-.91,7.34-.19,1.75-.21,3.51-.42,5.25-.25,2.14-.68,4.25-.91,6.38-.21,1.83-.15,3.68-.38,5.5-.66,5.22-1.61,10.4-2.07,15.63-.35,4.05-.29,8.13-1.42,12.1-.49,1.72-.83,2.25-2.63,2.58-.79.15-1.59.24-2.35.45-2.53.71-5,1.46-7.56,2.2-1.37.4-2.73.88-4.12,1.22-2.62.63-5.28,1.07-7.88,1.78-3.83,1.05-7.62,2.28-11.43,3.4q-2.85.84-5.75,1.56c-2.46.61-4.95,1.11-7.4,1.76s-4.86,1.48-7.31,2.17c-3.13.89-6.28,1.71-9.42,2.56-2,.54-4,1.1-6,1.61-2.62.66-5.31,1.09-7.86,1.95a14.92,14.92,0,0,1-9.85,0c-2-.66-3.95-1.22-6-1.73-2.53-.64-5.1-1.11-7.63-1.77-3.15-.81-6.27-1.74-9.41-2.61-2.07-.58-4.14-1.13-6.2-1.72-2.37-.67-4.71-1.41-7.08-2-2.53-.69-5.09-1.26-7.62-1.94-2.3-.62-4.58-1.32-6.87-2-1.6-.46-3.19-1-4.81-1.35-2.62-.64-5.28-1.13-7.88-1.82-4.46-1.18-8.88-2.48-13.33-3.68a2.56,2.56,0,0,1-2.2-2.21c-.4-3.17-.84-6.33-1.14-9.5-.25-2.71,0-5.5-.56-8.12-.81-3.65-.7-7.31-.9-11a13.57,13.57,0,0,0-.42-3.79,23.84,23.84,0,0,1-.89-7.11c-.1-2.55.12-5.19-.44-7.64a39.43,39.43,0,0,1-.95-9c0-3.88.22-5.44-5.62-5.43q-33,.06-66,0a19.19,19.19,0,0,0-2.4.07c-1.58.18-2.12.71-2.11,2.33a27.24,27.24,0,0,0,.37,6.21c1,3.88.73,7.78.94,11.69a11.88,11.88,0,0,0,.36,3.55,22.23,22.23,0,0,1,1,7.09,59.92,59.92,0,0,0,.54,8.6,51.44,51.44,0,0,1,.87,8.56c.06,2.24.12,4.48.33,6.71.28,3.09.73,6.17,1,9.26.18,1.83.17,3.68.33,5.51.25,2.69.6,5.38.85,8.07.18,2,0,4.06.49,6a37.42,37.42,0,0,1,.9,8.8c.08,3,0,6.08,1,9a6.58,6.58,0,0,1,.23,1.89c.26,5.18.11,10.36,1.25,15.51a4.25,4.25,0,0,0,3.64,3.7c2.33.5,4.65,1.07,6.94,1.72s4.83,1.57,7.26,2.29c2.9.85,5.82,1.63,8.73,2.42q3,.83,6,1.59c2.38.61,4.77,1.16,7.14,1.81s4.72,1.41,7.08,2.11c1.52.46,3,1,4.57,1.35,2.53.64,5.09,1.17,7.61,1.85s4.7,1.44,7.06,2.14c1.61.47,3.22.92,4.84,1.33,2.45.62,5,1.1,7.38,1.79,3.89,1.11,7.73,2.41,11.62,3.53q7.32,2.1,14.7,4c3.91,1,7.86,2,11.78,3,2,.53,4,1.11,5.94,1.71,2.28.68,4.54,1.43,6.83,2.1,2.67.78,5.35,1.5,8,2.23,2.22.6,4.45,1.16,6.68,1.76,2.44.65,4.94,1.18,7.31,2.05a10.16,10.16,0,0,0,5.64.59c2-.4,4-1,6-1.57,2.35-.71,4.64-1.61,7-2.25,3.84-1,7.73-1.88,11.58-2.87,1.93-.49,3.82-1.08,5.72-1.65,2.51-.74,5-1.51,7.52-2.24s5.2-1.5,7.8-2.22c2.22-.61,4.45-1.19,6.68-1.77,2.53-.66,5.08-1.27,7.6-2,2.22-.61,4.42-1.32,6.63-2,1.53-.46,3-.94,4.58-1.34,2.38-.61,4.79-1.09,7.16-1.74s4.83-1.55,7.28-2.2c3.91-1.06,7.85-2,11.77-3,.39-.1.73-.34,1.11-.45.9-.29,1.81-.56,2.73-.79.69-.18,1.41-.24,2.1-.44q5.71-1.67,11.43-3.37c1.6-.47,3.18-1,4.79-1.41,2.53-.64,5.11-1.12,7.63-1.83,3.75-1.05,7.44-2.32,11.19-3.36,4-1.13,8.16-2.05,12.22-3.14,1.38-.38,2.83-.9,3-2.7.3-4.21,1.46-8.33,1.23-12.61a17.35,17.35,0,0,1,.34-5.25c1-3.94.91-7.93,1.06-11.91a14.91,14.91,0,0,1,.39-3.8,26.57,26.57,0,0,0,.93-7.35,37.88,37.88,0,0,1,.37-7.17,53.52,53.52,0,0,0,1-10c.06-1.59.13-3.19.28-4.78.26-2.78.62-5.54.87-8.32.22-2.38.05-4.85.58-7.16a45.9,45.9,0,0,0,.81-8.8,24.3,24.3,0,0,1,.41-5.49c.95-3.3.88-6.63,1-10,.07-1.84.18-3.67.37-5.5.28-2.61.7-5.21.93-7.83.21-2.3.15-4.63.35-6.94.22-2.54.66-5.06.9-7.59.21-2.31,0-4.71.5-6.93.77-3.25.7-6.5.85-9.77a19.72,19.72,0,0,1,.4-4.76c1-3.21.88-6.47,1-9.74a26.09,26.09,0,0,1,.38-5.25,41.84,41.84,0,0,0,1-9.52,24.43,24.43,0,0,1,.3-5.49c.91-3.62.91-7.29,1.09-10.95.09-1.76.21-3.51.41-5.26s.65-3.3.69-5c.18-7.35,1.82-14.59,1.6-22a5.78,5.78,0,0,1,.28-1.89c.89-2.8.85-5.68.93-8.56a31.9,31.9,0,0,1,.41-6.2,43.13,43.13,0,0,0,1-9c0-2.08.11-4.16.32-6.22.27-2.78.79-5.53,1-8.3.57-6.84,1-13.69,1.56-20.53a3.75,3.75,0,0,1,.12-.95c1.08-3.26.79-6.64.95-10,.08-1.75.19-3.51.39-5.25.25-2.37.72-4.73.88-7.11.24-3.57-.15-7.2,1.14-10.67a9.7,9.7,0,0,0,.2-1.66c-.27-8.1,1.64-16.05,1.65-24.13A5.36,5.36,0,0,1,593,219c.93-2.8.73-5.69.86-8.56a32.58,32.58,0,0,1,.48-6.2,41.84,41.84,0,0,0,.89-9c.06-2.71,0-5.44,1-8a4.66,4.66,0,0,0,.21-1.9c0-1.33-.55-1.89-1.88-2-1.11-.11-2.24-.07-3.36-.07Z" transform="translate(-108 -57.36)"/></svg>