<svg id="Layer_4" data-name="Layer 4" xmlns="http://www.w3.org/2000/svg" viewBox="0 0 676.72 676.66"><defs><style>.cls-1{fill:#393939;}</style></defs><path class="cls-1" d="M68.23,400.56c0-96.76-.11-193.51.2-290.27,0-8.1,1.33-16.92,4.72-24.14,7.75-16.44,22-23.72,40.1-23.7q60.62.06,121.23,0,231.89,0,463.77-.07c18.7,0,33,7,42,23.68,4.2,7.77,4.62,16.27,4.62,24.84q0,131,0,261.92,0,159.32,0,318.63c0,13.11-2.81,24.95-12.23,34.58s-21,13-34.25,13q-139.85-.16-279.7-.06-152.08,0-304.18.06c-18.49,0-32.58-7-41.62-23.41-4.27-7.76-4.72-16.23-4.72-24.81q0-134.85,0-269.69ZM578.91,675.31c9.18-1,18.41-1.82,27.54-3.25a93.58,93.58,0,0,0,15.5-4.14c30.75-10.4,51.52-30.09,56.91-63.15,5.89-36.13-4.34-66.17-34.84-88.1-15.9-11.43-33.86-18.8-51.45-27-12.35-5.76-25.07-11.26-36.23-18.93-16.7-11.48-13.61-37.67,4.68-45.72,10.36-4.56,21-3.83,31.3.57,8.92,3.8,14.82,10.89,19.77,18.85,1.68,2.7,3.09,3.73,6.14,1.73q20.19-13.21,40.6-26.1c2.56-1.63,3.1-3.11,1.44-5.84-8.81-14.5-19.83-26.78-35.09-34.64-21.36-11-44.06-12.79-67.56-9.67-38.52,5.11-71.39,33.26-72.53,77.33-.79,30.6,9.51,56.22,35.28,73.63,13.07,8.83,27.67,15.42,41.72,22.76,13.89,7.25,28.84,12.86,41.74,21.54,18.71,12.58,15.87,41.51-4.38,50.31-16.88,7.33-34,6.48-50.11-3-12.21-7.17-19.87-18.63-27.28-30.18-1.83-2.85-3.19-4-6.5-1.78-13.47,9.14-27.1,18-40.67,27-2.75,1.82-3.69,3.89-1.63,6.93,4,6,7.52,12.35,12,18C509.06,662.72,541.38,674.44,578.91,675.31ZM439,482q0-53.08,0-106.17c0-7.26-.16-7.42-7.52-7.42q-24.46,0-48.92,0c-8.36,0-8.38,0-8.38,8.24q0,93.95,0,187.89c0,6.11.16,12.28-.56,18.33-1.36,11.35-5.25,21.61-17.42,25.34a47.51,47.51,0,0,1-28-.21c-12.86-3.89-22-12.64-29.07-23.67-2.35-3.68-4.3-4.07-8-1.74-13.17,8.24-26.45,16.31-39.91,24-4.57,2.63-5.37,5-2.71,9.59,10.17,17.48,23.58,31.75,40.84,42.28,29.31,17.88,60.65,20.45,93,10.9,18.91-5.58,33.86-17,43.83-34.49s12.62-36.57,12.74-56.18C439.1,546.48,439,514.24,439,482Z" transform="translate(-68.22 -62.39)"/></svg>