<svg id="Layer_7" data-name="Layer 7" xmlns="http://www.w3.org/2000/svg" viewBox="0 0 681.67 681.67"><defs><style>.cls-1{fill:#393939;}</style></defs><path class="cls-1" d="M64.33,741V59.33H746V741ZM107,101.92V698.19H703.31V101.92Z" transform="translate(-64.33 -59.33)"/><path class="cls-1" d="M187.46,232.32c16.26-1.66,32.29-4.23,48.37-4.72,28.13-.84,56.33-1.32,84.43-.24,23.67.91,46.58,6.78,66.84,19.81C413,263.8,427.65,287.94,431,318.27c3.81,35-3.32,67.33-29,93.18-19.62,19.74-44.42,30.12-71.55,33.68-21.65,2.85-43.64,3.2-66.87,4.75V569.07H187.46ZM264,387.65c14.93,2.63,29.3,3,43.53.27,30-5.7,44.77-21.43,48-50.25a46,46,0,0,0-28.33-47.93c-17-7-34.68-6.11-52.4-4.54-3.63.32-7.2,1.35-10.77,2Z" transform="translate(-64.33 -59.33)"/><path class="cls-1" d="M449.16,503.9c15,4.83,29.54,10.09,44.4,14.14,12.93,3.52,26.26,4.27,39.47.68,8.36-2.27,14.34-7.05,15.52-16.16s-2.64-16-10.53-19.71c-12.62-5.88-25.69-10.79-38.56-16.12-16.37-6.78-31.28-15.67-43-29.3-22.06-25.73-17.05-65.11,3-88.12,16.14-18.49,37.14-27.93,60.78-31.23,30.6-4.27,60.56-.85,89.27,11.21.79.33,1.55.73,3,1.39-4.46,17.42-8.88,34.72-13.21,51.65-11.93-3.68-23.3-8.22-35.1-10.48a102.93,102.93,0,0,0-29.59-1c-11.26,1.18-17,7.36-18.27,16.34-1.4,10.18,4.84,15.92,12.84,19.56,12.67,5.78,26,10.1,38.56,16.17,10.88,5.27,21.92,11,31.32,18.45,34.88,27.8,33.13,90.56-12,116.61-17.91,10.35-37.43,14.93-57.73,16.09-28.15,1.62-55.78-1.62-82.34-11.7-3.68-1.39-7.18-3.28-11.13-5.1Z" transform="translate(-64.33 -59.33)"/></svg>